<?xml version="1.0" encoding="UTF-8"?>
<svg version="1.1" xmlns="http://www.w3.org/2000/svg" width="500" height="500">
<path d="M0 0 C165 0 330 0 500 0 C500 165 500 330 500 500 C335 500 170 500 0 500 C0 335 0 170 0 0 Z " fill="#000000" transform="translate(0,0)"/>
<path d="M0 0 C0.44898765 4.54702038 -0.71363518 6.59284798 -3.4375 10.1875 C-4.53578125 11.63769531 -4.53578125 11.63769531 -5.65625 13.1171875 C-7.82724462 15.78751088 -10.08487263 18.30247854 -12.4375 20.8125 C-22.6327162 31.93138535 -29.57731664 45.96902055 -37 59 C-36.34 59.66 -35.68 60.32 -35 61 C-35 61.99 -35 62.98 -35 64 C-36.98 64 -38.96 64 -41 64 C-41.33 65.32 -41.66 66.64 -42 68 C-40.824375 67.5978125 -40.824375 67.5978125 -39.625 67.1875 C-36 66 -36 66 -33.4453125 65.41015625 C-30.82951647 64.76947577 -28.44495629 64.13357065 -26 63 C-24.23902514 59.98226415 -24.23902514 59.98226415 -24 57 C-23.34 57.66 -22.68 58.32 -22 59 C-20.9171875 57.88625 -20.9171875 57.88625 -19.8125 56.75 C-17.31407427 54.30709485 -14.76356798 52.1318953 -12 50 C-12.50603992 52.16874252 -12.99983813 53.99967627 -14 56 C-13.01 56 -12.02 56 -11 56 C-11 57.65 -11 59.3 -11 61 C-10.15695312 61.13277344 -9.31390625 61.26554687 -8.4453125 61.40234375 C-7.34960938 61.57894531 -6.25390625 61.75554687 -5.125 61.9375 C-4.03445313 62.11152344 -2.94390625 62.28554687 -1.8203125 62.46484375 C1 63 1 63 3 64 C3.35578125 63.02546875 3.35578125 63.02546875 3.71875 62.03125 C9.97301869 47.23456555 19.08770428 31.82457283 32 22 C33 25 33 25 32.06640625 26.9453125 C29.37850201 30.84102826 26.66808494 34.40895519 23.375 37.8125 C19.05423957 42.51007093 15.8871828 47.79529057 12.625 53.25 C12.10083496 54.1263208 11.57666992 55.0026416 11.03662109 55.90551758 C8.7055894 59.87100758 6.63627342 63.69041858 5 68 C5.99 68 6.98 68 8 68 C7.74213573 74.52396607 7.17832479 78.87818251 3 84 C3.7425 83.505 4.485 83.01 5.25 82.5 C8 81 8 81 12 81 C12 82.32 12 83.64 12 85 C11.195625 85.226875 10.39125 85.45375 9.5625 85.6875 C8.716875 86.120625 7.87125 86.55375 7 87 C6.10613836 89.54775306 6.10613836 89.54775306 6 92 C6.66 92 7.32 92 8 92 C8 94.97 8 97.94 8 101 C9.340625 100.505 10.68125 100.01 12.0625 99.5 C16.26731929 98.08286945 19.59252783 97.71867199 24 98 C24.5625 99.9375 24.5625 99.9375 25 102 C24 103 24 103 21.05859375 103.09765625 C19.86363281 103.08605469 18.66867187 103.07445312 17.4375 103.0625 C16.23996094 103.05347656 15.04242188 103.04445313 13.80859375 103.03515625 C12.41833984 103.01775391 12.41833984 103.01775391 11 103 C11.433125 104.216875 11.86625 105.43375 12.3125 106.6875 C12.8828125 108.91015625 12.8828125 108.91015625 13 111 C10.6875 113.625 10.6875 113.625 8 116 C7.0311941 119.13265479 7.0311941 119.13265479 7 122 C7.33 122.33 7.66 122.66 8 123 C8.04063832 124.66617115 8.042721 126.33388095 8 128 C8.94875 127.95875 9.8975 127.9175 10.875 127.875 C14 128 14 128 16 130 C19.58343976 130.16677282 19.58343976 130.16677282 23 130 C22.9375 131.75 22.9375 131.75 22 134 C18.26221982 136.71172287 16.30485806 137.97538004 11.6875 138.0625 C9 137 9 137 7.625 134.4375 C7.41875 133.633125 7.2125 132.82875 7 132 C4.77077045 134.22922955 4.11871047 136.09135278 3 139 C2 140 2 140 -0.5 140.125 C-3 140 -3 140 -4 139 C-9.12934158 138.82312615 -13.93241001 139.06921817 -19 140 C-19.33 140.33 -19.66 140.66 -20 141 C-17.36 141 -14.72 141 -12 141 C-12.1875 142.8125 -12.1875 142.8125 -13 145 C-15.5 146.625 -15.5 146.625 -18 148 C-18.33 148.66 -18.66 149.32 -19 150 C-21.0625 150.625 -21.0625 150.625 -23 151 C-23.3459973 156.65128923 -22.68154755 160.11575268 -20 165 C-17.9648239 166.4818964 -17.9648239 166.4818964 -16 167 C-16 167.66 -16 168.32 -16 169 C-17.66611905 169.042721 -19.33382885 169.04063832 -21 169 C-21.33 168.67 -21.66 168.34 -22 168 C-22.33 169.32 -22.66 170.64 -23 172 C-24.875 171.6875 -24.875 171.6875 -27 171 C-29.19696964 167.70454554 -29.91799194 164.78702822 -31 161 C-31.66 160.01 -32.32 159.02 -33 158 C-33 156.68 -33 155.36 -33 154 C-31.68 154.66 -30.36 155.32 -29 156 C-29 156.66 -29 157.32 -29 158 C-28.34 158 -27.68 158 -27 158 C-27 155.03 -27 152.06 -27 149 C-27.825 149.45375 -28.65 149.9075 -29.5 150.375 C-34.74238555 152.80896472 -40.15332577 154.53151584 -46 154 C-47 153 -47 153 -47.09765625 150.49609375 C-47.08025391 148.98208984 -47.08025391 148.98208984 -47.0625 147.4375 C-47.05347656 146.42558594 -47.04445313 145.41367187 -47.03515625 144.37109375 C-47.01775391 143.19740234 -47.01775391 143.19740234 -47 142 C-47.66 142 -48.32 142 -49 142 C-49.309375 142.61875 -49.61875 143.2375 -49.9375 143.875 C-50.625 145.25 -51.3125 146.625 -52 148 C-54.25 148.25 -54.25 148.25 -57 148 C-58.3743291 146.70896357 -59.70896357 145.3743291 -61 144 C-63.1381966 143.2127322 -63.1381966 143.2127322 -65 143 C-64.34 142.01 -63.68 141.02 -63 140 C-64.79260132 140.05995322 -66.58425795 140.1487241 -68.375 140.25 C-69.37273437 140.29640625 -70.37046875 140.3428125 -71.3984375 140.390625 C-72.25695312 140.59171875 -73.11546875 140.7928125 -74 141 C-75.11828195 142.77600969 -75.11828195 142.77600969 -76 145 C-76.86496094 145.75152344 -77.72992188 146.50304687 -78.62109375 147.27734375 C-81.34230733 149.85769844 -81.34230733 149.85769844 -81.34765625 153.62890625 C-81.20650391 155.57603516 -81.20650391 155.57603516 -81.0625 157.5625 C-80.57861921 164.43905934 -80.57861921 164.43905934 -82.828125 167.43359375 C-85.86635027 169.62483176 -87.2930502 169.55953959 -91 169 C-94.08473355 167.82871001 -97.04709301 166.46989148 -100 165 C-100 165.99 -100 166.98 -100 168 C-101.32 167.67 -102.64 167.34 -104 167 C-104.66 164.69 -105.32 162.38 -106 160 C-107.65 160.33 -109.3 160.66 -111 161 C-110.57571575 158.03001028 -110.15190358 156.21032804 -108.375 153.75 C-106.5741272 150.14825439 -107.11739254 147.77544026 -107.7734375 143.890625 C-107.88558594 142.95476562 -107.88558594 142.95476562 -108 142 C-107.67 141.67 -107.34 141.34 -107 141 C-109.31 141 -111.62 141 -114 141 C-114 141.99 -114 142.98 -114 144 C-113.34 144.66 -112.68 145.32 -112 146 C-111.62728454 148.90718056 -111.60721862 150.41082793 -113.25 152.875 C-115 154 -115 154 -117.0625 154.0625 C-119 153 -119 153 -120.25 149.9375 C-120.4975 148.968125 -120.745 147.99875 -121 147 C-121.804375 148.2065625 -121.804375 148.2065625 -122.625 149.4375 C-125.43105369 152.46508424 -126.96825194 152.72510809 -131 153 C-131.33 150.69 -131.66 148.38 -132 146 C-132.639375 145.896875 -133.27875 145.79375 -133.9375 145.6875 C-134.9584375 145.3471875 -134.9584375 145.3471875 -136 145 C-136.33 144.01 -136.66 143.02 -137 142 C-139.97017694 142.62810173 -139.97017694 142.62810173 -143 144 C-144.38858872 146.42885788 -144.38858872 146.42885788 -145 149 C-145.33 149.66 -145.66 150.32 -146 151 C-146.19748248 154.05000724 -146.31815178 157.09789376 -146.42578125 160.15234375 C-147 163 -147 163 -148.84765625 164.88671875 C-151.91730833 166.47446983 -153.75294796 165.98823323 -157 165 C-159 162 -159 162 -159 159.125 C-157.62807594 154.83773732 -155.60707439 153.60937296 -152 151 C-152.57452746 147.06924356 -152.57452746 147.06924356 -155 144 C-155.1875 141.4375 -155.1875 141.4375 -155 139 C-154.67 138.67 -154.34 138.34 -154 138 C-159.72428216 137.50223633 -163.62542126 138.81488717 -168.86328125 141.125 C-171 142 -171 142 -173 142 C-173 142.66 -173 143.32 -173 144 C-173.7425 144.433125 -174.485 144.86625 -175.25 145.3125 C-179.26697585 147.77746245 -181.51189609 150.53568827 -183 155 C-182.01 155 -181.02 155 -180 155 C-180.33 155.99 -180.66 156.98 -181 158 C-182.65 158 -184.3 158 -186 158 C-186 158.99 -186 159.98 -186 161 C-186.99 161 -187.98 161 -189 161 C-189.3690205 149.47835991 -189.3690205 149.47835991 -187 144 C-187.928125 143.401875 -188.85625 142.80375 -189.8125 142.1875 C-193 140 -193 140 -194.5625 138.1875 C-196.01850588 136.72799855 -196.01850588 136.72799855 -198.5625 137 C-201.24375877 137.79130224 -201.24375877 137.79130224 -202.3125 140.5625 C-202.6528125 141.7690625 -202.6528125 141.7690625 -203 143 C-204.65 143 -206.3 143 -208 143 C-208.125 140.625 -208.125 140.625 -208 138 C-207.34 137.34 -206.68 136.68 -206 136 C-206.32041397 133.39719432 -206.32041397 133.39719432 -207 131 C-210.15838815 131.80434405 -210.15838815 131.80434405 -212.375 134.375 C-215.3289526 137.3289526 -218.29470761 139.14735381 -222 141 C-222 142.32 -222 143.64 -222 145 C-223.62580966 144.88601335 -225.25067157 144.75844341 -226.875 144.625 C-227.77992188 144.55539062 -228.68484375 144.48578125 -229.6171875 144.4140625 C-232 144 -232 144 -234 142 C-236.4797728 141.77651857 -236.4797728 141.77651857 -239 143 C-240.66570565 145.23879409 -241.76045463 147.47500018 -243 150 C-242.505 150.433125 -242.01 150.86625 -241.5 151.3125 C-240 153 -240 153 -240 156 C-242.76250036 157.38125018 -244.94731099 157.19079306 -248 157 C-250.1385485 154.8614515 -250.42655063 153.86724686 -251 151 C-251.61746094 151.58007812 -252.23492187 152.16015625 -252.87109375 152.7578125 C-264.61558607 163.5906319 -264.61558607 163.5906319 -270 166 C-272.2578125 165.6484375 -272.2578125 165.6484375 -274 165 C-267.77063114 157.2442295 -260.62477886 150.98763902 -252 146 C-252.33 144.02 -252.66 142.04 -253 140 C-258.94 139.67 -264.88 139.34 -271 139 C-271.33 140.32 -271.66 141.64 -272 143 C-275.3 142.67 -278.6 142.34 -282 142 C-282 146.62 -282 151.24 -282 156 C-283.65 156.33 -285.3 156.66 -287 157 C-288 156 -288 156 -288.25 152.9375 C-287.95768258 148.33350068 -286.7813072 145.23060459 -285 141 C-288.3 140.34 -291.6 139.68 -295 139 C-295 139.66 -295 140.32 -295 141 C-293.02 141.33 -291.04 141.66 -289 142 C-288.67 143.32 -288.34 144.64 -288 146 C-292.82129414 146.09453518 -297.27588853 146.07979691 -302 145 C-303.32 145 -304.64 145 -306 145 C-306.268125 145.886875 -306.53625 146.77375 -306.8125 147.6875 C-308.86157518 153.40334129 -308.86157518 153.40334129 -311 156 C-314.0625 156.5 -314.0625 156.5 -317 156 C-319 153 -319 153 -318.6875 149.4375 C-318 146 -318 146 -317 144 C-318.2692311 139.84615278 -320.5295542 136.54097231 -323 133 C-323.515625 133.598125 -324.03125 134.19625 -324.5625 134.8125 C-327 137 -327 137 -330.6875 138.5 C-334.1225998 139.60657573 -334.1225998 139.60657573 -334.9375 142.1875 C-334.958125 142.785625 -334.97875 143.38375 -335 144 C-336.093125 143.79375 -337.18625 143.5875 -338.3125 143.375 C-342.0838401 142.59653475 -342.0838401 142.59653475 -345 145 C-345.72382467 147.05925139 -345.72382467 147.05925139 -346 149 C-345.01 149.33 -344.02 149.66 -343 150 C-342.505 152.475 -342.505 152.475 -342 155 C-343.32 155.33 -344.64 155.66 -346 156 C-346 156.66 -346 157.32 -346 158 C-347.65 157.67 -349.3 157.34 -351 157 C-352.3542168 153.34361463 -351.51496224 151.48672608 -350 148 C-354.7340453 151.58131087 -359.3135204 155.23307996 -363.6875 159.25 C-367.73841926 162.89794824 -371.33631126 166 -377 166 C-371.97858882 154.70182484 -360.13041985 148.16299307 -350 142 C-352.39591038 141.97287649 -354.79150957 141.9531018 -357.1875 141.9375 C-357.86103516 141.92912109 -358.53457031 141.92074219 -359.22851562 141.91210938 C-362.95434131 141.89393462 -366.3788042 142.10700608 -370 143 C-370 141.35 -370 139.7 -370 138 C-370.598125 137.773125 -371.19625 137.54625 -371.8125 137.3125 C-374.59348403 135.64390958 -375.5641916 133.8716168 -377 131 C-377 130.34 -377 129.68 -377 129 C-380.31426868 130.91311444 -383.61911118 132.84188256 -386.91894531 134.77978516 C-388.40131351 135.64896351 -389.88520377 136.51554822 -391.37011719 137.38037109 C-401.07164405 143.0405319 -410.52020883 148.57461369 -419 156 C-420.90729623 157.65668331 -422.82426009 159.30229228 -424.75 160.9375 C-426.04164063 162.06478516 -426.04164063 162.06478516 -427.359375 163.21484375 C-430.30983794 165.20946145 -432.48520806 165.67626916 -436 166 C-427.92236137 150.31987796 -408.09989854 142.19542477 -393.28027344 134.17773438 C-392.15395508 133.56478516 -391.02763672 132.95183594 -389.8671875 132.3203125 C-388.85769043 131.77648926 -387.84819336 131.23266602 -386.80810547 130.67236328 C-381.48494234 127.70930803 -381.48494234 127.70930803 -378.29296875 122.859375 C-378.25816406 122.16328125 -378.22335937 121.4671875 -378.1875 120.75 C-378.0946875 118.89375 -378.0946875 118.89375 -378 117 C-380.21737399 115.09574222 -382.4109447 113.37004176 -385 112 C-388.1259423 112.58157066 -389.59181943 113.65559765 -392 115.6875 C-394 117 -394 117 -396.75 116.6875 C-397.4925 116.460625 -398.235 116.23375 -399 116 C-398.8125 114.1875 -398.8125 114.1875 -398 112 C-394.33874929 109.07099943 -391.6175429 108.67784584 -387 109 C-387.66 107.02 -388.32 105.04 -389 103 C-391.97 103 -394.94 103 -398 103 C-396 101 -396 101 -392.375 100.875 C-391.26125 100.91625 -390.1475 100.9575 -389 101 C-389.103125 99.865625 -389.20625 98.73125 -389.3125 97.5625 C-389.32541782 90.27685045 -384.61869429 84.3029453 -380 79 C-381.20381448 76.50638429 -382.45428722 74.31856917 -384 72 C-383.13375 72.4640625 -383.13375 72.4640625 -382.25 72.9375 C-380.03084006 73.98543664 -378.43584963 74.71655568 -376 75 C-373.63125401 73.81473209 -373.63125401 73.81473209 -371.375 72.0625 C-367.17539863 69 -367.17539863 69 -365 69 C-366.53914994 66.97720413 -368.08061641 64.95629669 -369.625 62.9375 C-370.0792334 62.34348389 -370.5334668 61.74946777 -371.00146484 61.13745117 C-373.45681215 57.94497595 -375.95429821 54.82987943 -378.625 51.8125 C-381 49 -381 49 -381 47 C-378.2265625 47.17578125 -378.2265625 47.17578125 -375 48 C-373.0234375 50.29296875 -373.0234375 50.29296875 -371.375 53.1875 C-370.79363281 54.18007812 -370.21226562 55.17265625 -369.61328125 56.1953125 C-368.81470703 57.58363281 -368.81470703 57.58363281 -368 59 C-367.2002422 60.19611871 -366.3907708 61.38594572 -365.5625 62.5625 C-364 65 -364 65 -364 67 C-363.35933594 66.7834375 -362.71867187 66.566875 -362.05859375 66.34375 C-356.8261918 64.65940004 -352.4934405 63.64173214 -347 64 C-346.34 62.35 -345.68 60.7 -345 59 C-341.535 58.505 -341.535 58.505 -338 58 C-338.66 57.01 -339.32 56.02 -340 55 C-340 54.01 -340 53.02 -340 52 C-332.76911577 54.19117704 -327.89521969 59.8102963 -323.359375 65.58203125 C-321.94585114 67.27692722 -321.94585114 67.27692722 -319 68 C-318.59007812 67.16855469 -318.18015625 66.33710938 -317.7578125 65.48046875 C-317.21898437 64.39378906 -316.68015625 63.30710938 -316.125 62.1875 C-315.59132813 61.10855469 -315.05765625 60.02960938 -314.5078125 58.91796875 C-313 56 -313 56 -311 53 C-311.5775 52.38511719 -312.155 51.77023438 -312.75 51.13671875 C-313.4925 50.32847656 -314.235 49.52023438 -315 48.6875 C-315.7425 47.88699219 -316.485 47.08648437 -317.25 46.26171875 C-319 44 -319 44 -319 41 C-316.875 41 -316.875 41 -314 42 C-308 48.39344262 -308 48.39344262 -308 52 C-307.01 52 -306.02 52 -305 52 C-305.350625 51.278125 -305.70125 50.55625 -306.0625 49.8125 C-307.10409017 46.6877295 -306.89096572 45.11838004 -306 42 C-304.0625 42.625 -304.0625 42.625 -302 44 C-301.375 47.0625 -301.375 47.0625 -301 50 C-300.34 50.33 -299.68 50.66 -299 51 C-298.67 50.34 -298.34 49.68 -298 49 C-297.01 49.33 -296.02 49.66 -295 50 C-295.33 53.3 -295.66 56.6 -296 60 C-297.65 60 -299.3 60 -301 60 C-301.99 57.525 -301.99 57.525 -303 55 C-303.12815365 57.3852733 -303.12815365 57.3852733 -302 60 C-299.47332213 61.67198768 -296.80063432 62.85805571 -294 64 C-293.34 63.01 -292.68 62.02 -292 61 C-288.63408134 62.44253657 -286.48952921 64.33264727 -284 67 C-284.03480469 66.32453125 -284.06960938 65.6490625 -284.10546875 64.953125 C-284.14607422 63.61507812 -284.14607422 63.61507812 -284.1875 62.25 C-284.22230469 61.36828125 -284.25710938 60.4865625 -284.29296875 59.578125 C-283.94313716 56.49960704 -283.16160039 55.19183257 -281 53 C-277.8493196 52.54052577 -275.92162472 52.47774599 -273.125 54.0625 C-271.39349048 57.04454418 -271.75890214 59.6246299 -272 63 C-272.33 63.99 -272.66 64.98 -273 66 C-272.19175781 65.97679687 -271.38351562 65.95359375 -270.55078125 65.9296875 C-268.94783203 65.90261719 -268.94783203 65.90261719 -267.3125 65.875 C-266.25675781 65.85179687 -265.20101562 65.82859375 -264.11328125 65.8046875 C-260.97748141 66.00141271 -258.82354627 66.66942346 -256 68 C-255.81824219 67.41992188 -255.63648438 66.83984375 -255.44921875 66.2421875 C-253.9581894 61.60852707 -252.31666424 57.30237645 -250 53 C-251.32 52.67 -252.64 52.34 -254 52 C-253.67 51.01 -253.34 50.02 -253 49 C-251.63875 49.0928125 -251.63875 49.0928125 -250.25 49.1875 C-246.57934232 48.97573129 -245.80112806 48.16861527 -243 46 C-240.25 45.8125 -240.25 45.8125 -238 46 C-238.54723683 49.37462715 -239.0549 51.08235 -241 54 C-241.66 54 -242.32 54 -243 54 C-242.67 55.65 -242.34 57.3 -242 59 C-242.75539062 58.91363281 -243.51078125 58.82726562 -244.2890625 58.73828125 C-247.10097113 58.72395021 -247.10097113 58.72395021 -248.8359375 60.79296875 C-249.34382812 61.58316406 -249.85171875 62.37335938 -250.375 63.1875 C-250.89835938 63.96480469 -251.42171875 64.74210937 -251.9609375 65.54296875 C-253.20816766 68.49224608 -252.91116352 69.98244082 -252 73 C-251.52949219 72.57847656 -251.05898437 72.15695313 -250.57421875 71.72265625 C-249.95160156 71.17480469 -249.32898438 70.62695312 -248.6875 70.0625 C-248.07261719 69.51722656 -247.45773438 68.97195312 -246.82421875 68.41015625 C-243.90168222 66.15097919 -241.37964476 65.87902222 -237.8125 65.9375 C-236.554375 65.958125 -235.29625 65.97875 -234 66 C-234.825 65.05125 -235.65 64.1025 -236.5 63.125 C-239 60.25 -239 60.25 -239 58 C-232.71408878 58.55463923 -228.97129865 62.72736432 -225.125 67.3125 C-224.42375 68.199375 -223.7225 69.08625 -223 70 C-222.34 69.484375 -221.68 68.96875 -221 68.4375 C-217.02236607 66.53155041 -214.17961182 66.72831283 -210 68 C-207.1875 69.9375 -207.1875 69.9375 -205 72 C-202.3167763 74.2608746 -202.3167763 74.2608746 -200 73.75 C-197.73354622 72.98647443 -197.73354622 72.98647443 -195 71 C-194.773125 70.195625 -194.54625 69.39125 -194.3125 68.5625 C-192.75174906 65.5153196 -191.98703018 65.33605244 -188.875 64.1875 C-187.58908793 63.77335394 -186.29886417 63.37153556 -185 63 C-184.67 60.69 -184.34 58.38 -184 56 C-182.51965236 56.47550561 -181.04074979 56.95551216 -179.5625 57.4375 C-178.73878906 57.70433594 -177.91507812 57.97117188 -177.06640625 58.24609375 C-175 59 -175 59 -174 60 C-173.4995585 62.96625326 -173.09912166 65.9410292 -172.6953125 68.921875 C-171.94632925 72.23759859 -171.1685459 74.37440631 -169 77 C-166.52168365 77.68754942 -166.52168365 77.68754942 -164 77 C-159.08362892 73.45854626 -156.56199435 68.33891778 -154.4375 62.8125 C-152.41766901 57.57418421 -150.87779145 54.84537835 -146 52 C-143.125 51.6875 -143.125 51.6875 -141 52 C-141.33 53.65 -141.66 55.3 -142 57 C-141.34 57 -140.68 57 -140 57 C-139.875 59.875 -139.875 59.875 -140 63 C-140.66 63.66 -141.32 64.32 -142 65 C-142.66 63.02 -143.32 61.04 -144 59 C-147.86140712 62.00331665 -150.94889156 64.44198125 -153 69 C-153.25196129 71.70953551 -153.25196129 71.70953551 -153 74 C-147.71800407 75.19988045 -147.71800407 75.19988045 -143 73 C-141.7811879 69.44327821 -141.7811879 69.44327821 -141 66 C-139.875 69.75 -139.875 69.75 -141 72 C-138.92022703 70.77409808 -138.92022703 70.77409808 -137 69 C-137 67.68 -137 66.36 -137 65 C-130.4 65 -123.8 65 -117 65 C-116.34 61.37 -115.68 57.74 -115 54 C-116.32 53.34 -117.64 52.68 -119 52 C-120.703125 50.16015625 -120.703125 50.16015625 -122.25 48.0625 C-122.77078125 47.37285156 -123.2915625 46.68320313 -123.828125 45.97265625 C-125 44 -125 44 -125 41 C-120.73176286 41.47424857 -118.82507269 43.95761403 -116 47 C-115.401875 47.598125 -114.80375 48.19625 -114.1875 48.8125 C-113.795625 49.204375 -113.40375 49.59625 -113 50 C-113 49.34 -113 48.68 -113 48 C-112.34 48 -111.68 48 -111 48 C-110.97421875 48.61488281 -110.9484375 49.22976562 -110.921875 49.86328125 C-110.86515625 50.67152344 -110.8084375 51.47976562 -110.75 52.3125 C-110.70359375 53.11300781 -110.6571875 53.91351563 -110.609375 54.73828125 C-109.82091593 57.66467743 -108.5240032 58.44016602 -106 60 C-105.57589844 59.23816406 -105.15179688 58.47632813 -104.71484375 57.69140625 C-99.08115553 47.77363863 -92.79869165 38.42326399 -84 31 C-83.34 31 -82.68 31 -82 31 C-82.54185103 34.96662743 -83.6041827 37.22082497 -86.125 40.3125 C-86.7540625 41.09109375 -87.383125 41.8696875 -88.03125 42.671875 C-89.86133878 44.83602761 -91.73189165 46.95351087 -93.625 49.0625 C-96.92451067 52.76420835 -99.52541767 56.71224444 -102 61 C-100.02 61.33 -98.04 61.66 -96 62 C-96.66 60.02 -97.32 58.04 -98 56 C-97.01 55.34 -96.02 54.68 -95 54 C-93.79549696 51.44816596 -93.79549696 51.44816596 -93 49 C-90.69 49.33 -88.38 49.66 -86 50 C-86 48.68 -86 47.36 -86 46 C-85.34 46 -84.68 46 -84 46 C-84 45.01 -84 44.02 -84 43 C-82.68 43 -81.36 43 -80 43 C-80 46 -80 46 -81.4609375 47.5 C-82.40839844 48.2425 -82.40839844 48.2425 -83.375 49 C-85.86340153 50.96614442 -87.1957287 52.29359306 -89 55 C-89.66 55 -90.32 55 -91 55 C-91 57.31 -91 59.62 -91 62 C-86.38 62 -81.76 62 -77 62 C-77.33 60.35 -77.66 58.7 -78 57 C-77.34 56.67 -76.68 56.34 -76 56 C-74.23537317 59.08809695 -74 60.23312136 -74 64 C-73.401875 63.67 -72.80375 63.34 -72.1875 63 C-70 62 -70 62 -67 62 C-66.85304688 60.42798828 -66.85304688 60.42798828 -66.703125 58.82421875 C-66.55302873 57.44520927 -66.40193478 56.06630813 -66.25 54.6875 C-66.188125 53.99720703 -66.12625 53.30691406 -66.0625 52.59570312 C-65.6929511 49.40834385 -65.38050672 47.41221561 -63.171875 45.01953125 C-61 44 -61 44 -57 44 C-56.74311927 49.52293578 -56.74311927 49.52293578 -58.3125 52.4375 C-59.26575803 54.91336199 -59.26575803 54.91336199 -58.1953125 56.796875 C-55.69396183 60.55666917 -53.54811719 62.95043449 -49 64 C-47.68 64 -46.36 64 -45 64 C-44.351521 62.80793945 -44.351521 62.80793945 -43.68994141 61.59179688 C-10.12116387 0 -10.12116387 0 0 0 Z " fill="#F7F6F7" transform="translate(448,141)"/>
<path d="M0 0 C2.375 0 2.375 0 5 1 C6.8125 4.5625 6.8125 4.5625 8 8 C8.56847656 7.79503906 9.13695312 7.59007812 9.72265625 7.37890625 C10.49480469 7.10949219 11.26695312 6.84007812 12.0625 6.5625 C12.81660156 6.29566406 13.57070312 6.02882812 14.34765625 5.75390625 C20.05696564 4.1310834 25.77699703 3.8217149 31.6875 3.75 C32.97011719 3.72421875 34.25273437 3.6984375 35.57421875 3.671875 C39.13050591 4.0125 40.46859232 4.56472172 43 7 C42.67 8.98 42.34 10.96 42 13 C40.1875 13.625 40.1875 13.625 38 14 C37.01 13.34 36.02 12.68 35 12 C35 12.66 35 13.32 35 14 C28.07 14 21.14 14 14 14 C14.165 16.02125 14.33 18.0425 14.5 20.125 C15.02947721 27.43327694 15.10024535 34.67095086 15 42 C15.886875 41.525625 16.77375 41.05125 17.6875 40.5625 C23.07220526 38.25161006 29.18507042 37.6385314 35 38 C37.4515224 39.75769531 37.91364755 40.50655744 38.4375 43.5 C38 46 38 46 36.3828125 47.5859375 C33.38705814 49.36374583 30.88519169 49.69354825 27.4375 50.125 C24.11420352 50.55502928 21.18113067 50.93962311 18 52 C17.67 52.99 17.34 53.98 17 55 C17.65597168 54.99476318 18.31194336 54.98952637 18.98779297 54.98413086 C21.95018563 54.96338728 24.91256303 54.95034824 27.875 54.9375 C29.42380859 54.92493164 29.42380859 54.92493164 31.00390625 54.91210938 C31.99003906 54.90888672 32.97617188 54.90566406 33.9921875 54.90234375 C34.90339355 54.89710693 35.81459961 54.89187012 36.75341797 54.88647461 C39 55 39 55 41 56 C41.16435547 54.52853516 41.16435547 54.52853516 41.33203125 53.02734375 C45.40111056 17.7502336 45.40111056 17.7502336 57.0625 6.625 C59.53167268 4.75887526 61.02738326 3.99273505 64.0625 3.1875 C68.49470242 4.41342833 71.13686834 6.40599867 74 10 C77.70505917 16.95073095 79.79332555 24.47639761 82 32 C82.01981934 31.35973877 82.03963867 30.71947754 82.06005859 30.05981445 C82.15563601 27.1436472 82.26518214 24.22816428 82.375 21.3125 C82.4059375 20.30509766 82.436875 19.29769531 82.46875 18.25976562 C82.52675781 16.79506836 82.52675781 16.79506836 82.5859375 15.30078125 C82.6173584 14.40528564 82.6487793 13.50979004 82.68115234 12.5871582 C83.02661113 9.78407493 83.84681468 7.56735469 85 5 C89.875 5.875 89.875 5.875 91 7 C91.07325168 9.86267567 91.09238205 12.700719 91.0625 15.5625 C91.05798828 16.36880859 91.05347656 17.17511719 91.04882812 18.00585938 C91.03700518 20.00393756 91.01906914 22.00197783 91 24 C96.8625268 19.81739002 102.12465599 15.23699263 107.3125 10.25 C108.70256621 8.91992746 110.09441996 7.59171992 111.48828125 6.265625 C112.09196533 5.68586914 112.69564941 5.10611328 113.31762695 4.50878906 C115 3 115 3 118 1 C120.1875 1.375 120.1875 1.375 122 2 C122.75 4.125 122.75 4.125 123 7 C121.3125 10 121.3125 10 119 13 C118.4225 13.804375 117.845 14.60875 117.25 15.4375 C114.77440072 18.25693252 112.08808361 20.58834393 109.23828125 23.01953125 C105.31145226 26.49405533 101.66773944 30.25584932 98 34 C100.49524441 36.53940803 103.03959682 38.94279729 105.75 41.25 C123.23450171 56.49206562 123.23450171 56.49206562 124.5625 64.3125 C124 67 124 67 122.8125 68.875 C120.20497041 70.49346664 119.05721198 70.5173091 116 70 C113.43292904 68.10017228 111.30842243 65.82170683 109.125 63.5 C108.50584717 62.86231689 107.88669434 62.22463379 107.2487793 61.56762695 C103.45291857 57.63082709 99.77073086 53.61074611 96.33203125 49.35546875 C94.93106921 47.72424722 94.93106921 47.72424722 92 47 C92.04125 48.093125 92.0825 49.18625 92.125 50.3125 C92 54 92 54 90 57 C88.35 56.67 86.7 56.34 85 56 C84.69255859 56.95712891 84.69255859 56.95712891 84.37890625 57.93359375 C83.97478516 59.17302734 83.97478516 59.17302734 83.5625 60.4375 C83.29566406 61.26121094 83.02882812 62.08492188 82.75390625 62.93359375 C82 65 82 65 81 66 C79.33382885 66.04063832 77.66611905 66.042721 76 66 C74.12379578 62.83390538 73.90337178 60.64167599 74 57 C61.72907966 57.62613002 61.72907966 57.62613002 50 61 C47.6377838 63.95552204 47.6377838 63.95552204 47 67 C44.61435923 66.42415568 42.33317216 65.77772405 40 65 C37.679924 65.25011972 35.36746398 65.57355832 33.0625 65.9375 C15.99130875 68.3925058 15.99130875 68.3925058 9.375 65.3125 C6.93307411 62.93483532 5.90552001 61.25987205 5 58 C4.97421875 58.60328125 4.9484375 59.2065625 4.921875 59.828125 C4.65558441 63.58040148 4.41860951 66.31348041 2.4375 69.5625 C-0.94484999 71.55721922 -4.23372383 71.95384275 -8 71 C-18.5047577 64.00747132 -21.42145397 48.42089159 -25 37 C-25.0501123 37.7113208 -25.10022461 38.4226416 -25.15185547 39.15551758 C-25.3838082 42.37524236 -25.62924177 45.5938008 -25.875 48.8125 C-25.95363281 49.93205078 -26.03226563 51.05160156 -26.11328125 52.20507812 C-26.19707031 53.27822266 -26.28085938 54.35136719 -26.3671875 55.45703125 C-26.44050293 56.44678955 -26.51381836 57.43654785 -26.58935547 58.45629883 C-27 61 -27 61 -29 64 C-32.31726155 63.42805835 -33.72635823 62.42999536 -36 60 C-36.50789063 60.40992188 -37.01578125 60.81984375 -37.5390625 61.2421875 C-44.73889799 66.87801379 -50.7969825 69.02752137 -60 68 C-63.625 66.5 -63.625 66.5 -66 65 C-65.67 64.34 -65.34 63.68 -65 63 C-65.66 62.34 -66.32 61.68 -67 61 C-67.99 61.495 -67.99 61.495 -69 62 C-69.46001702 58.85655034 -69.48859148 56.7555072 -67.734375 54.04296875 C-66.22393893 52.24291022 -64.76851892 50.54859947 -63 49 C-62.34 49 -61.68 49 -61 49 C-61 48.34 -61 47.68 -61 47 C-61.99 46.9175 -62.98 46.835 -64 46.75 C-69.99295491 45.8644014 -74.47426244 43.33502036 -79 39.375 C-81.73709619 34.75615018 -82.10183034 31.23963922 -81 26 C-79.44764307 22.58481476 -77.4104634 19.86048553 -75 17 C-74.41992188 16.29746094 -73.83984375 15.59492188 -73.2421875 14.87109375 C-67.29490751 8.31415536 -58.29273272 2.55390577 -49.29296875 1.76171875 C-42.86987856 1.60821093 -38.8281354 1.56333504 -34 6 C-32.63047327 8.73905345 -32.87378639 10.97087332 -33 14 C-33.33 14.66 -33.66 15.32 -34 16 C-37.24208567 15.64950425 -38.61527704 15.43778819 -40.8125 12.9375 C-41.4003125 11.9784375 -41.4003125 11.9784375 -42 11 C-50.04052111 11 -55.06733366 14.80431085 -61 20 C-63.85718489 22.93388784 -64.93855544 24.18585955 -65.25 28.3125 C-65.12625 29.6428125 -65.12625 29.6428125 -65 31 C-63.20874151 31.75097435 -61.41696564 32.50071462 -59.625 33.25 C-58.53058594 33.71019531 -57.43617187 34.17039063 -56.30859375 34.64453125 C-54.2943725 35.46971989 -52.26788448 36.26669187 -50.22265625 37.01171875 C-44.24889239 39.19320109 -37.98571538 42.02856924 -35 48 C-34.9906543 47.09233887 -34.98130859 46.18467773 -34.97167969 45.24951172 C-34.92749516 41.86073186 -34.86580889 38.47318774 -34.79248047 35.08496094 C-34.7643689 33.62251295 -34.74310569 32.1599158 -34.72900391 30.69726562 C-34.70743581 28.58646831 -34.66072344 26.47744571 -34.609375 24.3671875 C-34.58842773 23.09987793 -34.56748047 21.83256836 -34.54589844 20.52685547 C-33.90808077 16.40614255 -32.63730238 14.199518 -30 11 C-27.125 10.0625 -27.125 10.0625 -24 11 C-18.40336469 17.16531934 -15.48310947 25.33860146 -12.42041016 32.95922852 C-11.61502681 34.96230441 -10.79506787 36.95894051 -9.97265625 38.95507812 C-6 48.67921357 -6 48.67921357 -6 51 C-5.34 51 -4.68 51 -4 51 C-4.00523682 50.09870361 -4.01047363 49.19740723 -4.01586914 48.26879883 C-4.03311759 44.85993789 -4.04554903 41.45112468 -4.05493164 38.04223633 C-4.05989824 36.57901264 -4.06667378 35.11579375 -4.07543945 33.65258789 C-4.12950977 24.381118 -3.88831598 15.24068949 -3 6 C-2.01 6.495 -2.01 6.495 -1 7 C-0.34 5.68 0.32 4.36 1 3 C0.67 3.33 0.34 3.66 0 4 C-0.66 4.33 -1.32 4.66 -2 5 C-1.125 1.125 -1.125 1.125 0 0 Z " fill="#CD0808" transform="translate(146,209)"/>
<path d="M0 0 C5.75351538 1.75205282 9.22813936 5.78562684 12.61328125 10.60546875 C14.05078125 13.60546875 14.05078125 13.60546875 14.61328125 15.60546875 C14.79503906 14.64833984 14.79503906 14.64833984 14.98046875 13.671875 C15.14804687 12.84558594 15.315625 12.01929688 15.48828125 11.16796875 C15.65070313 10.34425781 15.813125 9.52054688 15.98046875 8.671875 C16.18929687 7.98996094 16.398125 7.30804688 16.61328125 6.60546875 C17.27328125 6.27546875 17.93328125 5.94546875 18.61328125 5.60546875 C18.61328125 6.59546875 18.61328125 7.58546875 18.61328125 8.60546875 C19.27328125 7.61546875 19.93328125 6.62546875 20.61328125 5.60546875 C20.11828125 4.61546875 20.11828125 4.61546875 19.61328125 3.60546875 C27.61829758 0.31769418 34.75867444 -0.47629916 43.36328125 -0.64453125 C44.636875 -0.6703125 45.91046875 -0.69609375 47.22265625 -0.72265625 C50.75659923 -0.38066177 52.09354388 0.18753895 54.61328125 2.60546875 C54.28328125 4.91546875 53.95328125 7.22546875 53.61328125 9.60546875 C52.95328125 9.60546875 52.29328125 9.60546875 51.61328125 9.60546875 C51.61328125 8.94546875 51.61328125 8.28546875 51.61328125 7.60546875 C50.95328125 8.26546875 50.29328125 8.92546875 49.61328125 9.60546875 C49.61328125 9.93546875 49.61328125 10.26546875 49.61328125 10.60546875 C41.36328125 10.60546875 33.11328125 10.60546875 24.61328125 10.60546875 C25.26628375 16.7826622 25.26628375 16.7826622 25.9296875 22.95874023 C26.50373702 28.54034671 26.70460692 33.99464802 26.61328125 39.60546875 C27.52207031 39.17234375 27.52207031 39.17234375 28.44921875 38.73046875 C34.39287847 36.09697029 40.07786904 34.27440314 46.61328125 35.60546875 C48.9639189 37.43490071 49.53999162 38.11687122 49.98828125 41.10546875 C49.53917839 44.09948782 48.94052507 44.74451561 46.61328125 46.60546875 C44.52856445 47.22143555 44.52856445 47.22143555 42.1640625 47.5546875 C41.31650391 47.68037109 40.46894531 47.80605469 39.59570312 47.93554688 C38.2740918 48.1124707 38.2740918 48.1124707 36.92578125 48.29296875 C36.03310547 48.42251953 35.14042969 48.55207031 34.22070312 48.68554688 C32.01956781 49.00335786 29.81744561 49.309529 27.61328125 49.60546875 C27.61328125 50.92546875 27.61328125 52.24546875 27.61328125 53.60546875 C35.86328125 53.60546875 44.11328125 53.60546875 52.61328125 53.60546875 C53.60328125 55.58546875 53.60328125 55.58546875 54.61328125 57.60546875 C53.95328125 57.60546875 53.29328125 57.60546875 52.61328125 57.60546875 C52.61328125 58.26546875 52.61328125 58.92546875 52.61328125 59.60546875 C52.28328125 59.93546875 51.95328125 60.26546875 51.61328125 60.60546875 C52.27328125 60.60546875 52.93328125 60.60546875 53.61328125 60.60546875 C54.10828125 59.61546875 54.10828125 59.61546875 54.61328125 58.60546875 C54.28328125 59.92546875 53.95328125 61.24546875 53.61328125 62.60546875 C50.63540109 63.11440452 47.65635585 63.61277511 44.67578125 64.10546875 C43.84498047 64.24855469 43.01417969 64.39164062 42.15820312 64.5390625 C33.88384064 65.89129295 26.05477341 67.07036404 18.61328125 62.60546875 C16.0437614 58.75118898 15.15724795 55.17478902 14.61328125 50.60546875 C14.26136719 51.19714844 13.90945313 51.78882813 13.546875 52.3984375 C9.61113249 58.69768074 5.88661643 63.18102369 -1.38671875 65.60546875 C-9.4047386 66.53934793 -15.7985744 65.40523767 -22.38671875 60.60546875 C-28.02332005 54.81715768 -30.67089416 49.0286049 -30.76171875 40.91796875 C-30.62989378 31.92562257 -27.98350375 24.68375566 -22.38671875 17.60546875 C-17.99527637 13.34458277 -14.01129276 10.31366558 -7.76171875 10.35546875 C-6.98570312 10.3503125 -6.2096875 10.34515625 -5.41015625 10.33984375 C-3.38671875 10.60546875 -3.38671875 10.60546875 -1.38671875 12.60546875 C-1.26171875 14.91796875 -1.26171875 14.91796875 -2.38671875 17.60546875 C-4.1015625 18.796875 -4.1015625 18.796875 -6.19921875 19.98046875 C-10.37753573 22.44094985 -13.12245054 24.80283982 -14.38671875 29.60546875 C-15.45849544 40.15774153 -15.45849544 40.15774153 -11.38671875 49.60546875 C-8.17734466 51.92949826 -5.27165854 52.08117566 -1.38671875 51.60546875 C2.50697782 49.61334492 4.00154176 47.2928189 5.42578125 43.29296875 C7.84878996 33.93323224 8.37954381 22.31757162 3.61328125 13.60546875 C1.82040205 10.82071366 1.82040205 10.82071366 -1.38671875 9.60546875 C-7.17085869 8.99536084 -12.21240867 8.77699556 -17.38671875 11.60546875 C-20.13671875 11.73046875 -20.13671875 11.73046875 -22.38671875 11.60546875 C-23.19921875 9.41796875 -23.19921875 9.41796875 -23.38671875 6.60546875 C-16.73688776 -1.33738493 -9.83539036 -1.62581739 0 0 Z " fill="#078AD6" transform="translate(394.38671875,209.39453125)"/>
<path d="M0 0 C0.598125 0.20625 1.19625 0.4125 1.8125 0.625 C2.5625 2.75 2.5625 2.75 2.8125 5.625 C1.125 8.625 1.125 8.625 -1.1875 11.625 C-1.765 12.429375 -2.3425 13.23375 -2.9375 14.0625 C-5.41309928 16.88193252 -8.09941639 19.21334393 -10.94921875 21.64453125 C-14.87604774 25.11905533 -18.51976056 28.88084932 -22.1875 32.625 C-19.69225559 35.16440803 -17.14790318 37.56779729 -14.4375 39.875 C3.04700171 55.11706562 3.04700171 55.11706562 4.375 62.9375 C3.8125 65.625 3.8125 65.625 2.625 67.5 C0.01747041 69.11846664 -1.13028802 69.1423091 -4.1875 68.625 C-6.75457096 66.72517228 -8.87907757 64.44670683 -11.0625 62.125 C-11.68165283 61.48731689 -12.30080566 60.84963379 -12.9387207 60.19262695 C-16.73458143 56.25582709 -20.41676914 52.23574611 -23.85546875 47.98046875 C-25.25643079 46.34924722 -25.25643079 46.34924722 -28.1875 45.625 C-28.14625 46.718125 -28.105 47.81125 -28.0625 48.9375 C-28.1875 52.625 -28.1875 52.625 -30.1875 55.625 C-31.8375 55.295 -33.4875 54.965 -35.1875 54.625 C-35.6825 57.1 -35.6825 57.1 -36.1875 59.625 C-36.5175 59.625 -36.8475 59.625 -37.1875 59.625 C-37.1875 54.675 -37.1875 49.725 -37.1875 44.625 C-37.5175 44.625 -37.8475 44.625 -38.1875 44.625 C-38.38206705 42.66735617 -38.56794247 40.70884679 -38.75 38.75 C-38.85441406 37.65945312 -38.95882812 36.56890625 -39.06640625 35.4453125 C-39.1875 32.625 -39.1875 32.625 -38.1875 30.625 C-38.05873857 29.01738366 -37.98527376 27.40513668 -37.94140625 25.79296875 C-37.89209961 24.34760742 -37.89209961 24.34760742 -37.84179688 22.87304688 C-37.78095355 20.84450446 -37.72362007 18.81585351 -37.66992188 16.78710938 C-37.63576172 15.81966797 -37.60160156 14.85222656 -37.56640625 13.85546875 C-37.5413501 12.97270264 -37.51629395 12.08993652 -37.49047852 11.18041992 C-37.15908528 8.38534092 -36.3368452 6.18321997 -35.1875 3.625 C-30.3125 4.5 -30.3125 4.5 -29.1875 5.625 C-29.11424832 8.48767567 -29.09511795 11.325719 -29.125 14.1875 C-29.12951172 14.99380859 -29.13402344 15.80011719 -29.13867188 16.63085938 C-29.15049482 18.62893756 -29.16843086 20.62697783 -29.1875 22.625 C-23.3249732 18.44239002 -18.06284401 13.86199263 -12.875 8.875 C-11.48493379 7.54492746 -10.09308004 6.21671992 -8.69921875 4.890625 C-8.09553467 4.31086914 -7.49185059 3.73111328 -6.86987305 3.13378906 C-2.83385197 -0.4858032 -2.83385197 -0.4858032 0 0 Z " fill="#CD0505" transform="translate(266.1875,210.375)"/>
<path d="M0 0 C0.93134766 -0.01611328 1.86269531 -0.03222656 2.82226562 -0.04882812 C3.71494141 -0.04947266 4.60761719 -0.05011719 5.52734375 -0.05078125 C6.327771 -0.05376221 7.12819824 -0.05674316 7.95288086 -0.05981445 C10.59342854 0.4062005 11.49793157 1.15952533 13.0625 3.3125 C13 6.375 13 6.375 12.0625 9.3125 C8.3599687 12.19224657 3.76179411 11.53342176 -0.6875 11.4375 C-1.48027344 11.42847656 -2.27304687 11.41945312 -3.08984375 11.41015625 C-5.03919281 11.38667012 -6.98838575 11.35080137 -8.9375 11.3125 C-8.79675049 11.89410889 -8.65600098 12.47571777 -8.51098633 13.07495117 C-6.72031825 21.45691929 -6.59849979 29.66392176 -6.62182617 38.19360352 C-6.62501694 40.63797411 -6.60133984 43.08116614 -6.57617188 45.52539062 C-6.57390111 47.09635266 -6.57319435 48.66731791 -6.57421875 50.23828125 C-6.565009 50.96026199 -6.55579926 51.68224274 -6.54631042 52.42610168 C-6.59806328 58.1157776 -7.88081146 62.25581146 -11.9375 66.3125 C-15.0625 65.9375 -15.0625 65.9375 -17.9375 65.3125 C-18.2675 63.9925 -18.5975 62.6725 -18.9375 61.3125 C-17.9475 61.3125 -16.9575 61.3125 -15.9375 61.3125 C-16.5975 59.3325 -17.2575 57.3525 -17.9375 55.3125 C-18.2675 56.6325 -18.5975 57.9525 -18.9375 59.3125 C-19.5975 59.3125 -20.2575 59.3125 -20.9375 59.3125 C-21.07777702 43.61706016 -20.67714434 27.99059938 -19.9375 12.3125 C-20.55165771 12.46122559 -21.16581543 12.60995117 -21.79858398 12.76318359 C-22.60626221 12.95219238 -23.41394043 13.14120117 -24.24609375 13.3359375 C-25.04587646 13.52591309 -25.84565918 13.71588867 -26.66967773 13.91162109 C-29.33078806 14.38202083 -31.37040553 14.14059499 -33.9375 13.3125 C-34.625 11.5 -34.625 11.5 -34.9375 9.3125 C-32.72060838 6.44095583 -30.23861899 5.44541567 -26.875 4.25 C-25.99714844 3.92902344 -25.11929687 3.60804688 -24.21484375 3.27734375 C-16.12305984 0.895138 -8.42417914 -0.03002202 0 0 Z " fill="#098BD6" transform="translate(352.9375,208.6875)"/>
<path d="M0 0 C2.75329021 1.79562405 4.52627461 3.05254922 6 6 C7.16993813 12.72714424 4.07701284 16.6978694 0.43359375 22.23046875 C-1.24464175 24.83631369 -1.24464175 24.83631369 -0.71484375 27.36328125 C-0.47894531 27.90339844 -0.24304688 28.44351563 0 29 C0.99 29 1.98 29 3 29 C3.639375 28.319375 4.27875 27.63875 4.9375 26.9375 C5.618125 26.298125 6.29875 25.65875 7 25 C9.25 25.25 9.25 25.25 11 26 C10.44894091 29.9492568 9.61064629 33.34920174 8 37 C8.680625 37.721875 9.36125 38.44375 10.0625 39.1875 C12 42 12 42 11.75 44.8125 C11.5025 45.534375 11.255 46.25625 11 47 C7.12867972 46.42647107 4.91827204 44.51295648 2 42 C1.67 42.99 1.34 43.98 1 45 C-3.15040826 48.63160723 -6.50007169 49.69677173 -11.87890625 49.4609375 C-15.35672821 48.70516772 -16.93378535 46.77647594 -19 44 C-20.25219376 40.24341871 -20.65115279 36.89320824 -20 33 C-18.84765625 30.96875 -18.84765625 30.96875 -17.4375 28.875 C-13.697689 22.89760545 -15.03786403 16.69684739 -16 10 C-15.34 10.33 -14.68 10.66 -14 11 C-13.95875 9.9275 -13.9175 8.855 -13.875 7.75 C-13 4 -13 4 -10.375 1.5625 C-6.47711225 -0.24207766 -4.24499885 -0.61745438 0 0 Z " fill="#0A0A0A" transform="translate(297,221)"/>
<path d="M0 0 C2.9547002 2.67330018 3.75205425 4.53403871 4.625 8.375 C5.945 7.715 7.265 7.055 8.625 6.375 C7.64633662 7.52126322 6.66705413 8.66699788 5.6875 9.8125 C4.86958984 10.76962891 4.86958984 10.76962891 4.03515625 11.74609375 C3.25704305 12.64491149 2.46563472 13.53436528 1.625 14.375 C1.66649562 17.50226106 1.75244535 20.61771285 1.92773438 23.74023438 C2.01930203 27.20963099 1.89731005 29.01326609 -0.21875 31.82421875 C-3.2472681 34.00233775 -4.68337964 33.93222571 -8.375 33.375 C-11.45973355 32.20371001 -14.42209301 30.84489148 -17.375 29.375 C-17.375 30.365 -17.375 31.355 -17.375 32.375 C-18.695 32.045 -20.015 31.715 -21.375 31.375 C-22.035 29.065 -22.695 26.755 -23.375 24.375 C-25.025 24.705 -26.675 25.035 -28.375 25.375 C-27.95071575 22.40501028 -27.52690358 20.58532804 -25.75 18.125 C-24.18625826 14.99751653 -24.4063147 14.19524003 -25 10.875 C-25.52819371 7.26167488 -25.60157387 6.72241326 -23.5 3.5 C-16.44240022 -1.29916785 -8.01789769 -3.86046926 0 0 Z " fill="#090909" transform="translate(365.375,276.625)"/>
<path d="M0 0 C1.33333333 1.66666667 2.66666667 3.33333333 4 5 C5.65 5 7.3 5 9 5 C8.67 16.55 8.34 28.1 8 40 C6.68 38.35 5.36 36.7 4 35 C-1.82709551 29.74140161 -8.90441015 27.38384226 -16.23510742 25.00415039 C-21.81773424 23.18226576 -21.81773424 23.18226576 -24 21 C-24.68671706 17.79532038 -24.52754661 15.82758874 -22.75 13.0390625 C-17.39631406 6.57002533 -9.0445738 -1.32359617 0 0 Z " fill="#FDF8F8" transform="translate(104,219)"/>
<path d="M0 0 C3.35124622 0.27927052 4.74111872 0.74851532 7.1875 3.125 C12.37634379 11.3555798 11.97152133 21.6891934 10.53515625 31.01953125 C9.49917594 35.10828194 8.28667475 38.1966459 5.1875 41.125 C1.62836185 43.21861068 0.04395548 43.68833285 -4 43 C-8.20698493 41.14109968 -9.99599563 39.09244712 -12 35 C-13.01424123 28.04969574 -13.24865053 20.93683548 -9.4375 14.8125 C-6.46056015 11.04691976 -3.33355371 8.99343471 1 7 C0.67 4.69 0.34 2.38 0 0 Z " fill="#FAFCFE" transform="translate(391,219)"/>
<path d="M0 0 C0.99 0.33 1.98 0.66 3 1 C6.7071271 9.4954996 7.61563791 18.89855561 9 28 C6.60468067 28.64779076 4.20878252 29.29329009 1.8125 29.9375 C1.13896484 30.11990234 0.46542969 30.30230469 -0.22851562 30.49023438 C-3.80148458 31.4488358 -7.36156738 32.32883282 -11 33 C-9.36964217 21.09409739 -7.01488484 9.93775352 0 0 Z " fill="#F9F2F2" transform="translate(208,225)"/>
<path d="M0 0 C2.125 0 2.125 0 5 1 C11 7.39344262 11 7.39344262 11 11 C11.99 11 12.98 11 14 11 C13.649375 10.278125 13.29875 9.55625 12.9375 8.8125 C11.89590983 5.6877295 12.10903428 4.11838004 13 1 C14.9375 1.625 14.9375 1.625 17 3 C17.625 6.0625 17.625 6.0625 18 9 C18.66 9.33 19.32 9.66 20 10 C20.33 9.34 20.66 8.68 21 8 C21.99 8.33 22.98 8.66 24 9 C23.67 12.3 23.34 15.6 23 19 C21.35 19 19.7 19 18 19 C17.34 17.35 16.68 15.7 16 14 C16.33 15.98 16.66 17.96 17 20 C16.34 20 15.68 20 15 20 C14.67 20.99 14.34 21.98 14 23 C13.51917969 23.46019531 13.03835937 23.92039063 12.54296875 24.39453125 C10.64316714 26.37128685 10.10654261 28.07850287 9.3125 30.6875 C9.06113281 31.49574219 8.80976563 32.30398437 8.55078125 33.13671875 C8.36902344 33.75160156 8.18726563 34.36648437 8 35 C2.41420534 30.95921238 2.41420534 30.95921238 0.8125 27.25 C1.15303063 21.34746907 4.79428972 16.80856542 8 12 C7.4225 11.38511719 6.845 10.77023438 6.25 10.13671875 C5.5075 9.32847656 4.765 8.52023438 4 7.6875 C3.2575 6.88699219 2.515 6.08648437 1.75 5.26171875 C0 3 0 3 0 0 Z " fill="#EEEEEE" transform="translate(129,182)"/>
<path d="M0 0 C1.50143544 3.00287088 1.26574018 6.083109 1.3125 9.375 C1.34150391 10.04789062 1.37050781 10.72078125 1.40039062 11.4140625 C1.4443996 14.85353284 1.25050599 16.66846353 -0.84765625 19.4453125 C-3.85488626 21.61750405 -5.33950518 21.56315305 -9 21 C-11.83742642 19.93271116 -14.52701176 18.76473385 -17 17 C-17.33 16.01 -17.66 15.02 -18 14 C-17.01 14.33 -16.02 14.66 -15 15 C-14.71125 13.989375 -14.4225 12.97875 -14.125 11.9375 C-11.67550511 6.07066102 -5.49373851 2.74686926 0 0 Z " fill="#F8F8F8" transform="translate(366,289)"/>
<path d="M0 0 C2.5625 0.1875 2.5625 0.1875 4.5625 2.1875 C7.25089385 2.45741906 9.85391936 2.27487357 12.5625 2.1875 C11.9392082 6.23889671 10.11705887 9.02791403 7.5625 12.1875 C5.26063296 13.51626016 3.0937434 14.31130036 0.5625 15.1875 C1.04332031 15.58582031 1.52414062 15.98414063 2.01953125 16.39453125 C3.93641825 18.62200247 4.03991643 19.97584669 4.25 22.875 C4.34861328 24.08736328 4.34861328 24.08736328 4.44921875 25.32421875 C4.48660156 25.93910156 4.52398437 26.55398438 4.5625 27.1875 C3.2425 26.8575 1.9225 26.5275 0.5625 26.1875 C-0.0975 23.8775 -0.7575 21.5675 -1.4375 19.1875 C-3.0875 19.5175 -4.7375 19.8475 -6.4375 20.1875 C-6.01321575 17.21751028 -5.58940358 15.39782804 -3.8125 12.9375 C-2.0116272 9.33575439 -2.55489254 6.96294026 -3.2109375 3.078125 C-3.28570312 2.45421875 -3.36046875 1.8303125 -3.4375 1.1875 C-2.4375 0.1875 -2.4375 0.1875 0 0 Z " fill="#F5F5F5" transform="translate(343.4375,281.8125)"/>
<path d="M0 0 C1 3 1 3 0.06640625 4.9453125 C-2.62149799 8.84102826 -5.33191506 12.40895519 -8.625 15.8125 C-13.70456986 21.27450852 -17.17353424 27.77667072 -20.78759766 34.25708008 C-21.27534668 35.11068115 -21.7630957 35.96428223 -22.265625 36.84375 C-22.69649414 37.61912109 -23.12736328 38.39449219 -23.57128906 39.19335938 C-25.27020369 41.34167931 -26.33144774 41.64951209 -29 42 C-23.35407744 26.53508168 -13.16592178 10.01754918 0 0 Z " fill="#EBEBEB" transform="translate(480,163)"/>
<path d="M0 0 C2 3 2 3 2 7 C2.99 7.33 3.98 7.66 5 8 C4.34 8 3.68 8 3 8 C2.9175 9.093125 2.835 10.18625 2.75 11.3125 C2 15 2 15 0.3125 16.75 C-2.67143266 18.36293657 -4.41549572 18.12416128 -7.75 17.6875 C-8.73484375 17.56761719 -9.7196875 17.44773438 -10.734375 17.32421875 C-11.48203125 17.21722656 -12.2296875 17.11023438 -13 17 C-11.68 16.67 -10.36 16.34 -9 16 C-9.28875 15.34 -9.5775 14.68 -9.875 14 C-10.04876598 9.82961648 -8.24371018 8.06269735 -5.73828125 4.8671875 C-3.96654222 2.96406108 -2.12488408 1.49065942 0 0 Z " fill="#0F0F0F" transform="translate(304,199)"/>
<path d="M0 0 C-0.54723683 3.37462715 -1.0549 5.08235 -3 8 C-3.66 8 -4.32 8 -5 8 C-4.67 9.65 -4.34 11.3 -4 13 C-4.76054687 12.9071875 -5.52109375 12.814375 -6.3046875 12.71875 C-9.13595915 12.70268796 -9.13595915 12.70268796 -10.6953125 14.96875 C-11.16710937 15.8040625 -11.63890625 16.639375 -12.125 17.5 C-13.5703125 20.03125 -13.5703125 20.03125 -15 22 C-15.99 22 -16.98 22 -18 22 C-16.36041242 16.76727367 -14.61047965 11.84803364 -12 7 C-13.32 6.67 -14.64 6.34 -16 6 C-15.67 5.01 -15.34 4.02 -15 3 C-14.0925 3.061875 -13.185 3.12375 -12.25 3.1875 C-7.25577915 2.89937187 -5.31291555 -0.44274296 0 0 Z " fill="#ECECEC" transform="translate(210,187)"/>
<path d="M0 0 C4.26823714 0.47424857 6.17492731 2.95761403 9 6 C9.598125 6.598125 10.19625 7.19625 10.8125 7.8125 C11.204375 8.204375 11.59625 8.59625 12 9 C12 8.34 12 7.68 12 7 C12.66 7 13.32 7 14 7 C14.03867187 7.88751953 14.03867187 7.88751953 14.078125 8.79296875 C14.45704414 14.0720013 15.10636661 17.10636661 19 21 C17.73160474 21.50615298 16.46016898 22.00469099 15.1875 22.5 C14.47980469 22.7784375 13.77210938 23.056875 13.04296875 23.34375 C11 24 11 24 8 24 C8.66 20.37 9.32 16.74 10 13 C8.68 12.34 7.36 11.68 6 11 C4.296875 9.16015625 4.296875 9.16015625 2.75 7.0625 C2.22921875 6.37285156 1.7084375 5.68320313 1.171875 4.97265625 C0 3 0 3 0 0 Z " fill="#E2E2E2" transform="translate(323,182)"/>
<path d="M0 0 C0.66 0.33 1.32 0.66 2 1 C2.48354277 3.72813639 2.84447132 6.3748992 3.125 9.125 C3.21136719 9.87265625 3.29773438 10.6203125 3.38671875 11.390625 C4.88764023 25.0656874 4.88764023 25.0656874 1 30 C0.34 30 -0.32 30 -1 30 C-3.10978822 25.78042357 -2.18492875 20.19845541 -2.1875 15.5625 C-2.19974609 14.40427734 -2.21199219 13.24605469 -2.22460938 12.05273438 C-2.22654297 10.94349609 -2.22847656 9.83425781 -2.23046875 8.69140625 C-2.23457764 7.67248291 -2.23868652 6.65355957 -2.24291992 5.60375977 C-2 3 -2 3 0 0 Z " fill="#EEEEEE" transform="translate(372,304)"/>
<path d="M0 0 C5.10458367 1.5951824 8.85100063 4.75833648 13 8 C14.33138583 9.00259142 15.66417173 10.00333526 17 11 C16.34 12.32 15.68 13.64 15 15 C9.98188002 14.97813455 6.91401801 14.78072371 3 11.4375 C0.60428806 7.3198701 0.24352758 4.70819982 0 0 Z " fill="#0B0B0B" transform="translate(111,200)"/>
<path d="M0 0 C0.33 0 0.66 0 1 0 C1 1.65 1 3.3 1 5 C1.94875 4.95875 2.8975 4.9175 3.875 4.875 C7 5 7 5 9 7 C12.58343976 7.16677282 12.58343976 7.16677282 16 7 C15.9375 8.75 15.9375 8.75 15 11 C9.35104958 15.09825815 9.35104958 15.09825815 4.5625 14.75 C3.716875 14.5025 2.87125 14.255 2 14 C0.02905192 9.07262981 -0.1799928 5.21979128 0 0 Z " fill="#ECECEC" transform="translate(455,264)"/>
<path d="M0 0 C3.6875 0.875 3.6875 0.875 7 2 C7.125 4.375 7.125 4.375 7 7 C6.34 7.66 5.68 8.32 5 9 C5.32041397 11.60280568 5.32041397 11.60280568 6 14 C4.68 14 3.36 14 2 14 C-0.125 11.0625 -0.125 11.0625 -2 8 C-2.66 7.67 -3.32 7.34 -4 7 C-3.6875 4.625 -3.6875 4.625 -3 2 C-2.01 1.34 -1.02 0.68 0 0 Z " fill="#3F3F3F" transform="translate(106,283)"/>
<path d="M0 0 C0.825 0.433125 1.65 0.86625 2.5 1.3125 C2.83 0.9825 3.16 0.6525 3.5 0.3125 C4.16 0.3125 4.82 0.3125 5.5 0.3125 C5.5 1.9625 5.5 3.6125 5.5 5.3125 C4.778125 5.43625 4.05625 5.56 3.3125 5.6875 C0.52228141 6.20403423 0.52228141 6.20403423 -1.8125 7.375 C-5.50064955 8.6615638 -8.60366561 8.44457913 -12.5 8.3125 C-12.12152903 5.75644965 -11.76337437 4.56267422 -9.86328125 2.7578125 C-4.27529045 -0.8397892 -4.27529045 -0.8397892 0 0 Z " fill="#FAE8E8" transform="translate(97.5,259.6875)"/>
<path d="M0 0 C2.296875 -0.2578125 2.296875 -0.2578125 5 0 C6.703125 1.6953125 6.703125 1.6953125 8.25 4.125 C8.83265625 5.02476562 9.4153125 5.92453125 10.015625 6.8515625 C10.67046875 7.89054688 11.3253125 8.92953125 12 10 C12.82510739 11.23899405 13.65337367 12.47588881 14.484375 13.7109375 C15.32382555 14.97335444 16.16237559 16.23637067 17 17.5 C17.41024414 18.11117676 17.82048828 18.72235352 18.24316406 19.35205078 C19.22471207 20.86248294 20.12088682 22.4277399 21 24 C20.67 24.66 20.34 25.32 20 26 C15.69964933 21.20295229 11.62427264 16.29712576 7.7109375 11.1796875 C6.05890684 9.0750457 4.33400852 7.06688288 2.5625 5.0625 C0 2 0 2 0 0 Z " fill="#EBEBEB" transform="translate(229,188)"/>
<path d="M0 0 C0.99 0.66 1.98 1.32 3 2 C2 5 2 5 0.54296875 6.39453125 C-1.35683286 8.37128685 -1.89345739 10.07850287 -2.6875 12.6875 C-2.93886719 13.49574219 -3.19023437 14.30398437 -3.44921875 15.13671875 C-3.63097656 15.75160156 -3.81273437 16.36648437 -4 17 C-5.98 15.35 -7.96 13.7 -10 12 C-7.29076328 6.68572797 -4.77135213 3.57851409 0 0 Z " fill="#101010" transform="translate(141,200)"/>
<path d="M0 0 C0.66 0.33 1.32 0.66 2 1 C2.6328125 3.984375 2.6328125 3.984375 3.125 7.75 C3.29257812 8.98234375 3.46015625 10.2146875 3.6328125 11.484375 C4.22967259 17.19899292 4.22967259 17.19899292 4 20 C2 22.3125 2 22.3125 0 24 C-1.65394117 22.34605883 -1.12999683 20.39684587 -1.1328125 18.125 C-1.13410156 17.14015625 -1.13539063 16.1553125 -1.13671875 15.140625 C-1.13285156 14.10421875 -1.12898438 13.0678125 -1.125 12 C-1.13080078 10.44539063 -1.13080078 10.44539063 -1.13671875 8.859375 C-1.13542969 7.87453125 -1.13414062 6.8896875 -1.1328125 5.875 C-1.13168457 4.96492188 -1.13055664 4.05484375 -1.12939453 3.1171875 C-1 1 -1 1 0 0 Z " fill="#ECECEC" transform="translate(305,302)"/>
<path d="M0 0 C2.7734375 0.1796875 2.7734375 0.1796875 6 1 C7.9765625 3.2578125 7.9765625 3.2578125 9.625 6.125 C10.49705078 7.60806641 10.49705078 7.60806641 11.38671875 9.12109375 C11.91910156 10.07113281 12.45148438 11.02117187 13 12 C13.43957031 12.75410156 13.87914063 13.50820312 14.33203125 14.28515625 C15.23932252 15.84646666 16.12303218 17.42145792 17 19 C14.09107918 18.65663073 13.08478879 18.08950865 11.03515625 15.92578125 C10.38417969 15.06339844 9.73320313 14.20101562 9.0625 13.3125 C8.37285156 12.41144531 7.68320313 11.51039063 6.97265625 10.58203125 C6.32167969 9.72996094 5.67070313 8.87789062 5 8 C4.0076645 6.82680719 3.00920321 5.6587148 2 4.5 C0 2 0 2 0 0 Z " fill="#E6E6E6" transform="translate(67,188)"/>
<path d="M0 0 C1.875 0.625 1.875 0.625 4 2 C4.69258229 3.99117408 5.35747635 5.9921136 6 8 C6.70125 8.680625 7.4025 9.36125 8.125 10.0625 C10 12 10 12 10.25 14.75 C10.1675 15.4925 10.085 16.235 10 17 C7.2924804 16.63507345 6.19152311 16.20470131 4.296875 14.1796875 C0.93776939 9.17495944 -0.77289995 6.05438294 0 0 Z " fill="#E6E6E6" transform="translate(242,189)"/>
<path d="M0 0 C2.4375 0.1875 2.4375 0.1875 3.4375 1.1875 C3.70043056 5.21910191 3.73154844 6.74642734 1.4375 10.1875 C-1.0625 10.5 -1.0625 10.5 -3.5625 10.1875 C-4.2225 9.5275 -4.8825 8.8675 -5.5625 8.1875 C-4.91014826 0.35927914 -4.91014826 0.35927914 0 0 Z " fill="#F0F0F0" transform="translate(72.5625,286.8125)"/>
<path d="M0 0 C0.33 1.32 0.66 2.64 1 4 C0.236875 4.268125 -0.52625 4.53625 -1.3125 4.8125 C-4.30051506 5.93952095 -4.30051506 5.93952095 -7 9 C-9.64 8.01 -12.28 7.02 -15 6 C-10.38100741 1.38100741 -6.56721775 -0.46908698 0 0 Z " fill="#171717" transform="translate(215,272)"/>
<path d="M0 0 C0.8971875 0.309375 0.8971875 0.309375 1.8125 0.625 C1.4908251 3.60049283 1.29660699 5.17547208 -0.9375 7.25 C-1.68 7.70375 -2.4225 8.1575 -3.1875 8.625 C-4.033125 9.16125 -4.87875 9.6975 -5.75 10.25 C-8.1875 11.625 -8.1875 11.625 -11.1875 12.625 C-9.47476619 7.7722542 -6.28110807 -1.07676138 0 0 Z " fill="#F0F0F0" transform="translate(288.1875,287.375)"/>
<path d="M0 0 C2.4375 0.1875 2.4375 0.1875 3.4375 1.1875 C3.70043056 5.21910191 3.73154844 6.74642734 1.4375 10.1875 C-1.125 10.4375 -1.125 10.4375 -3.5625 10.1875 C-4.5625 9.1875 -4.5625 9.1875 -4.75 5.75 C-4.53332161 1.63311052 -4.25201945 0.31112337 0 0 Z " fill="#F6F6F6" transform="translate(234.5625,286.8125)"/>
<path d="M0 0 C1.32 0.33 2.64 0.66 4 1 C4.0825 1.94875 4.165 2.8975 4.25 3.875 C4.63752715 7.09834868 4.63752715 7.09834868 7 8.25 C7.66 8.4975 8.32 8.745 9 9 C10.35439668 11.70879335 10.06501451 14.00933268 10 17 C5.15952045 14.96679217 3.21009087 11.62789704 1 7 C0.37756976 4.59597595 0.15586499 2.49383987 0 0 Z " fill="#EEEEEE" transform="translate(79,189)"/>
<path d="M0 0 C0 2.64 0 5.28 0 8 C-1.98 8.99 -1.98 8.99 -4 10 C-6.5625 7.75 -6.5625 7.75 -9 5 C-9.0625 2.8125 -9.0625 2.8125 -8 1 C-5.08518252 -1.1107299 -3.34823603 -1.19579858 0 0 Z " fill="#E9E9E9" transform="translate(437,171)"/>
<path d="M0 0 C7.20790522 2.1842137 12.09077043 7.83096458 16.73828125 13.484375 C18.06919162 15.12988553 18.06919162 15.12988553 20 17 C16.05402397 16.41541096 14.03772623 14.50942601 11 12 C8.37745741 10.28023297 5.75378625 8.56491402 3.109375 6.87890625 C0.5995464 4.64329967 0.29338295 3.28927427 0 0 Z " fill="#E4E4E4" transform="translate(108,193)"/>
<path d="M0 0 C0.66 0.33 1.32 0.66 2 1 C2.05447822 3.52113092 2.09389852 6.0410585 2.125 8.5625 C2.14175781 9.26697266 2.15851563 9.97144531 2.17578125 10.69726562 C2.22022044 15.51891822 1.52768004 19.42297438 0 24 C-0.66 24 -1.32 24 -2 24 C-2.99626083 20.82978983 -2.96516845 18.5026511 -2.44140625 15.234375 C-2.30283203 14.34492188 -2.16425781 13.45546875 -2.02148438 12.5390625 C-1.87001953 11.61867187 -1.71855469 10.69828125 -1.5625 9.75 C-1.41490234 8.81414062 -1.26730469 7.87828125 -1.11523438 6.9140625 C-0.75052478 4.60815669 -0.37855026 2.30366712 0 0 Z " fill="#73BDE8" transform="translate(403,231)"/>
<path d="M0 0 C0.59770117 7.6538956 -0.56052066 14.08338278 -4 21 C-4.66 21.33 -5.32 21.66 -6 22 C-5.76240127 19.86161142 -5.52345116 17.72336352 -5.27734375 15.5859375 C-5.09719887 13.90627679 -4.94208365 12.22367447 -4.81640625 10.5390625 C-3.95857558 0 -3.95857558 0 0 0 Z " fill="#E4E4E4" transform="translate(411,163)"/>
<path d="M0 0 C0.56847656 0.39832031 1.13695312 0.79664063 1.72265625 1.20703125 C6.35725893 4.38703409 10.7499834 6.98935534 16 9 C15.67 9.66 15.34 10.32 15 11 C8.51813243 10.72417585 3.90890586 8.23472137 -1 4 C-1.33 3.01 -1.66 2.02 -2 1 C-1.34 0.67 -0.68 0.34 0 0 Z " fill="#77BFE8" transform="translate(371,264)"/>
<path d="M0 0 C4.75 -0.125 4.75 -0.125 7 1 C8.66194453 1.35613097 10.328451 1.69208308 12 2 C11.67 3.32 11.34 4.64 11 6 C9.37536158 6.05395478 7.75021459 6.09277195 6.125 6.125 C5.22007813 6.14820313 4.31515625 6.17140625 3.3828125 6.1953125 C1 6 1 6 -1 4 C-0.625 1.875 -0.625 1.875 0 0 Z " fill="#EFEFEF" transform="translate(86,183)"/>
<path d="M0 0 C0.75 1.75 0.75 1.75 1 4 C-0.625 6.3125 -0.625 6.3125 -3 8 C-5.75 7.75 -5.75 7.75 -8 7 C-8.6875 5.1875 -8.6875 5.1875 -9 3 C-6.75886401 -0.69128281 -4.00118708 -0.26674581 0 0 Z " fill="#E8E8E8" transform="translate(471,213)"/>
<path d="M0 0 C0 1.32 0 2.64 0 4 C-2.6875 6.3125 -2.6875 6.3125 -6 8 C-8.875 7.75 -8.875 7.75 -11 7 C-10.8125 5.1875 -10.8125 5.1875 -10 3 C-6.62712264 0.37665094 -4.24348127 -0.36372697 0 0 Z " fill="#E9E9E9" transform="translate(60,250)"/>
<path d="M0 0 C0.93065133 2.60582371 1.14917407 3.64198224 0.0625 6.25 C-0.288125 6.8275 -0.63875 7.405 -1 8 C-1.99 8 -2.98 8 -4 8 C-4.99 9.485 -4.99 9.485 -6 11 C-6.99 10.67 -7.98 10.34 -9 10 C-8.51219512 4.51219512 -8.51219512 4.51219512 -6.1875 2.1875 C-4.09612176 1.05218038 -2.33396414 0.41677931 0 0 Z " fill="#E5E5E5" transform="translate(296,226)"/>
<path d="M0 0 C3.875 1.875 3.875 1.875 5 3 C4.82364548 5.69082872 4.38164079 8.32851446 4 11 C3.01 11 2.02 11 1 11 C-1.20077008 8.2490374 -2.07295649 6.80252136 -1.75 3.25 C-1 1 -1 1 0 0 Z " fill="#EFEFEF" transform="translate(377,296)"/>
<path d="M0 0 C5.38493928 0.30970894 7.82467404 3.35430107 11.3125 7.0625 C12.13717773 7.91424805 12.13717773 7.91424805 12.97851562 8.78320312 C14.32827365 10.17990925 15.66541525 11.58878837 17 13 C13.00410206 13 11.2595363 11.4962444 7.9375 9.3125 C6.87402344 8.62800781 5.81054688 7.94351563 4.71484375 7.23828125 C1.88831223 4.90791785 0.97960959 3.47426755 0 0 Z " fill="#E8E8E8" transform="translate(47,199)"/>
<path d="M0 0 C3.24067792 0.43209039 5.00380674 1.40494876 7 4 C7 4.99 7 5.98 7 7 C4.26094655 8.36952673 2.02912668 8.12621361 -1 8 C-1.66 7.67 -2.32 7.34 -3 7 C-1.125 1.125 -1.125 1.125 0 0 Z " fill="#E1E1E1" transform="translate(39,290)"/>
<path d="M0 0 C0.33 0.99 0.66 1.98 1 3 C0.3503125 3.5259375 0.3503125 3.5259375 -0.3125 4.0625 C-2.27251969 6.08687494 -2.27251969 6.08687494 -3.375 9.625 C-4.179375 11.295625 -4.179375 11.295625 -5 13 C-7.6875 13.9375 -7.6875 13.9375 -10 14 C-10 13.34 -10 12.68 -10 12 C-10.66 12 -11.32 12 -12 12 C-11.67 10.35 -11.34 8.7 -11 7 C-10.34 7.66 -9.68 8.32 -9 9 C-7.88625 7.88625 -7.88625 7.88625 -6.75 6.75 C-4.5 4.5 -2.25 2.25 0 0 Z " fill="#717171" transform="translate(435,191)"/>
<path d="M0 0 C-5.69477654 3.79651769 -11.16191129 5.3335653 -18 5 C-17.40234375 3.08203125 -17.40234375 3.08203125 -16 1 C-13.06640625 0.13671875 -13.06640625 0.13671875 -9.5625 -0.3125 C-8.40878906 -0.47363281 -7.25507812 -0.63476562 -6.06640625 -0.80078125 C-3 -1 -3 -1 0 0 Z " fill="#E7E7E7" transform="translate(49,271)"/>
<path d="M0 0 C0.99 0.33 1.98 0.66 3 1 C3 2.32 3 3.64 3 5 C2.01 5 1.02 5 0 5 C-0.09152344 5.60328125 -0.18304688 6.2065625 -0.27734375 6.828125 C-1.17720492 9.53257263 -2.20702019 10.2082314 -4.5625 11.75 C-5.20316406 12.17796875 -5.84382813 12.6059375 -6.50390625 13.046875 C-7.24447266 13.51867187 -7.24447266 13.51867187 -8 14 C-7.625 12.0625 -7.625 12.0625 -7 10 C-6.34 9.67 -5.68 9.34 -5 9 C-3.98470459 6.67328135 -2.98511802 4.3396553 -2 2 C-1.34 1.34 -0.68 0.68 0 0 Z " fill="#ECECEC" transform="translate(447,156)"/>
<path d="M0 0 C0.5625 1.9375 0.5625 1.9375 1 4 C0.67 4.33 0.34 4.66 0 5 C-2.02408755 4.90997602 -4.04544287 4.75358962 -6.0625 4.5625 C-7.71958984 4.40974609 -7.71958984 4.40974609 -9.41015625 4.25390625 C-10.26480469 4.17011719 -11.11945313 4.08632812 -12 4 C-12 3.34 -12 2.68 -12 2 C-7.8794254 0.00214565 -4.54805635 -0.17835515 0 0 Z " fill="#EAEAEA" transform="translate(472,239)"/>
<path d="M0 0 C2 0 2 0 4.5625 1.9375 C7.72224474 5.9074357 7.88141732 9.05186827 8 14 C6.10546875 13.76953125 6.10546875 13.76953125 4 13 C2.98828125 11.07421875 2.98828125 11.07421875 2.3125 8.6875 C2.08175781 7.90761719 1.85101563 7.12773437 1.61328125 6.32421875 C1.05806712 4.22006328 0.51754757 2.11372232 0 0 Z " fill="#E4E4E4" transform="translate(455,281)"/>
<path d="M0 0 C0.66 0 1.32 0 2 0 C2.5775 0.61875 3.155 1.2375 3.75 1.875 C6.36113753 4.34107433 8.57011055 5.06457561 12 6 C12 6.66 12 7.32 12 8 C8.8125 8.8125 8.8125 8.8125 5 9 C2.0625 6.8125 2.0625 6.8125 0 4 C0 2.68 0 1.36 0 0 Z " fill="#DD5555" transform="translate(257,270)"/>
<path d="M0 0 C0.33 0 0.66 0 1 0 C1.04125 1.051875 1.0825 2.10375 1.125 3.1875 C2.23543682 8.02583184 3.9735559 9.23675405 8 12 C10.21587348 13.27852287 10.21587348 13.27852287 12 14 C9.50224844 15.66516771 8.43344911 16.08457544 5.4375 15.5 C2.09202441 13.44124579 1.29937967 11.6929738 0 8 C-0.22535761 5.27611241 -0.14182588 2.74196693 0 0 Z " fill="#6A6A6A" transform="translate(277,254)"/>
<path d="M0 0 C0.99 0 1.98 0 3 0 C3.4125 1.0725 3.825 2.145 4.25 3.25 C5.63739149 6.52265074 7.27999908 8.65517162 10 11 C8.3125 11.8125 8.3125 11.8125 6 12 C2.34926013 9.28317033 1.1435758 7.67370183 0.1875 3.1875 C0.125625 2.135625 0.06375 1.08375 0 0 Z " fill="#DC5151" transform="translate(151,263)"/>
<path d="M0 0 C0.66 0.33 1.32 0.66 2 1 C-1.3 4.63 -4.6 8.26 -8 12 C-8.99 11.67 -9.98 11.34 -11 11 C-10.505 10.649375 -10.01 10.29875 -9.5 9.9375 C-7.26936034 7.05625711 -7.80019379 4.52990974 -8 1 C-5.525 1.99 -5.525 1.99 -3 3 C-2.01 2.01 -1.02 1.02 0 0 Z " fill="#E4E4E4" transform="translate(228,285)"/>
<path d="M0 0 C-0.9520721 1.00596297 -1.91187346 2.00461563 -2.875 3 C-3.40867187 3.556875 -3.94234375 4.11375 -4.4921875 4.6875 C-6 6 -6 6 -8 6 C-8.33 6.99 -8.66 7.98 -9 9 C-10.32 8.67 -11.64 8.34 -13 8 C-12.67 7.01 -12.34 6.02 -12 5 C-11.01 5 -10.02 5 -9 5 C-8.67 4.01 -8.34 3.02 -8 2 C-3.63934426 -1.21311475 -3.63934426 -1.21311475 0 0 Z " fill="#E3E3E3" transform="translate(97,300)"/>
<path d="M0 0 C1 2 1 2 0.1875 4.5625 C-1 7 -1 7 -3 8 C-2.67 9.98 -2.34 11.96 -2 14 C-4.31 14 -6.62 14 -9 14 C-8.0653305 12.41499412 -7.12713737 10.83206584 -6.1875 9.25 C-5.66542969 8.36828125 -5.14335937 7.4865625 -4.60546875 6.578125 C-3.17453304 4.28027203 -1.66105577 2.13493054 0 0 Z " fill="#080808" transform="translate(354,189)"/>
<path d="M0 0 C0.66 0 1.32 0 2 0 C2.433125 1.093125 2.86625 2.18625 3.3125 3.3125 C4.49495641 6.09408793 5.60800043 8.06361939 8 10 C7.67 10.66 7.34 11.32 7 12 C3.39728091 11.02629214 2.20222909 10.3100846 0.125 7.125 C-0.98579669 4.03945364 -1.24791579 2.94961915 0 0 Z " fill="#55AFE3" transform="translate(411,262)"/>
<path d="M0 0 C2.31 0.33 4.62 0.66 7 1 C6.67 2.65 6.34 4.3 6 6 C3.625 6.125 3.625 6.125 1 6 C0.34 5.34 -0.32 4.68 -1 4 C-0.625 1.875 -0.625 1.875 0 0 Z " fill="#F0F0F0" transform="translate(148,177)"/>
<path d="M0 0 C-2.28554916 3.42832374 -3.29615153 3.58901011 -7 5 C-8.34275169 5.98731742 -9.67732273 6.98594743 -11 8 C-11.99 8.33 -12.98 8.66 -14 9 C-11.63175456 2.6057373 -6.73985507 -0.8023637 0 0 Z " fill="#DD5656" transform="translate(213,213)"/>
<path d="M0 0 C1.07765625 0.01804688 2.1553125 0.03609375 3.265625 0.0546875 C4.49539063 0.08949219 4.49539063 0.08949219 5.75 0.125 C3.37124245 2.50375755 2.62533968 2.40903059 -0.625 2.625 C-4.04432402 2.85371733 -6.20886836 3.59812478 -9.25 5.125 C-12 4.75 -12 4.75 -14.25 4.125 C-12.91666667 3.45833333 -11.58333333 2.79166667 -10.25 2.125 C-9.6725 1.774375 -9.095 1.42375 -8.5 1.0625 C-5.56158997 -0.16183751 -3.17093472 -0.06893336 0 0 Z " fill="#DBEEF9" transform="translate(387.25,217.875)"/>
<path d="M0 0 C0.66 0.33 1.32 0.66 2 1 C2 3.31 2 5.62 2 8 C0.68 8 -0.64 8 -2 8 C-2.66 7.34 -3.32 6.68 -4 6 C-4 4.68 -4 3.36 -4 2 C-2.125 0.9375 -2.125 0.9375 0 0 Z " fill="#F1F1F1" transform="translate(470,185)"/>
<path d="M0 0 C2.375 -0.125 2.375 -0.125 5 0 C7 2 7 2 7 5 C4.125 5.625 4.125 5.625 1 6 C0.34 5.34 -0.32 4.68 -1 4 C-0.625 1.875 -0.625 1.875 0 0 Z " fill="#ECECEC" transform="translate(248,183)"/>
<path d="M0 0 C0.66 0 1.32 0 2 0 C2 2 2 2 -0.3125 4.625 C-3 7 -3 7 -6 7 C-6 7.99 -6 8.98 -6 10 C-7.32 10 -8.64 10 -10 10 C-9.67 8.68 -9.34 7.36 -9 6 C-8.34 6 -7.68 6 -7 6 C-7 5.34 -7 4.68 -7 4 C-5.824375 3.566875 -5.824375 3.566875 -4.625 3.125 C-1.90328368 2.15087746 -1.90328368 2.15087746 0 0 Z " fill="#E6E6E6" transform="translate(197,299)"/>
<path d="M0 0 C0.66 0 1.32 0 2 0 C2 2 2 2 -0.3125 4.625 C-3 7 -3 7 -6 7 C-6 7.99 -6 8.98 -6 10 C-7.32 10 -8.64 10 -10 10 C-9.67 8.68 -9.34 7.36 -9 6 C-8.34 6 -7.68 6 -7 6 C-7 5.34 -7 4.68 -7 4 C-5.824375 3.566875 -5.824375 3.566875 -4.625 3.125 C-1.90328368 2.15087746 -1.90328368 2.15087746 0 0 Z " fill="#E3E3E3" transform="translate(35,299)"/>
<path d="M0 0 C0 1.65 0 3.3 0 5 C0.66 5 1.32 5 2 5 C2.33 5.99 2.66 6.98 3 8 C0.61435923 7.42415568 -1.66682784 6.77772405 -4 6 C-5.33106622 5.65772583 -6.66400079 5.32248257 -8 5 C-3.32258065 0 -3.32258065 0 0 0 Z " fill="#DE5E5E" transform="translate(190,268)"/>
<path d="M0 0 C0.99 0.66 1.98 1.32 3 2 C2.06409496 3.1055189 1.12620142 4.20935453 0.1875 5.3125 C-0.33457031 5.92738281 -0.85664063 6.54226562 -1.39453125 7.17578125 C-2.87172469 8.85424679 -4.40039131 10.43882034 -6 12 C-6.71484375 10.265625 -6.71484375 10.265625 -7 8 C-5.56640625 5.859375 -5.56640625 5.859375 -3.5625 3.75 C-2.57443359 2.69039062 -2.57443359 2.69039062 -1.56640625 1.609375 C-1.04949219 1.07828125 -0.53257812 0.5471875 0 0 Z " fill="#70BCE7" transform="translate(376,223)"/>
<path d="M0 0 C0.66 0 1.32 0 2 0 C1.6083965 5.95507399 0.62875405 10.62819824 -2 16 C-3.3805087 12.23331402 -2.59568159 9.55210827 -1.5625 5.75 C-1.27503906 4.67234375 -0.98757813 3.5946875 -0.69140625 2.484375 C-0.46324219 1.66453125 -0.23507812 0.8446875 0 0 Z " fill="#E1E1E1" transform="translate(451,180)"/>
<path d="M0 0 C2.64 1.98 5.28 3.96 8 6 C5.75 8.0625 5.75 8.0625 3 10 C0.6875 9.75 0.6875 9.75 -1 9 C-0.34 8.01 0.32 7.02 1 6 C0.68493373 2.85778033 0.68493373 2.85778033 0 0 Z " fill="#1D1D1D" transform="translate(406,273)"/>
<path d="M0 0 C1.1725131 0.95117134 2.33787015 1.91117009 3.5 2.875 C4.47453125 3.67550781 4.47453125 3.67550781 5.46875 4.4921875 C5.9740625 4.98976562 6.479375 5.48734375 7 6 C7 6.66 7 7.32 7 8 C1.25 7.125 1.25 7.125 -1 6 C-1.042721 4.33388095 -1.04063832 2.66617115 -1 1 C-0.67 0.67 -0.34 0.34 0 0 Z " fill="#171717" transform="translate(130,214)"/>
<path d="M0 0 C0 2.97 0 5.94 0 9 C-2 9 -2 9 -4.125 7.1875 C-6 5 -6 5 -6 2 C-2.25 0 -2.25 0 0 0 Z " fill="#1E1E1E" transform="translate(421,290)"/>
<path d="M0 0 C7.75 0.875 7.75 0.875 10 2 C9.45276317 5.37462715 8.9451 7.08235 7 10 C7 9.34 7 8.68 7 8 C6.34 7.67 5.68 7.34 5 7 C5.66 7 6.32 7 7 7 C6.67 6.01 6.34 5.02 6 4 C2.99152582 2.77479736 2.99152582 2.77479736 0 2 C0 1.34 0 0.68 0 0 Z " fill="#262626" transform="translate(153,280)"/>
<path d="M0 0 C1.98 0.495 1.98 0.495 4 1 C4.125 3.875 4.125 3.875 4 7 C3.34 7.66 2.68 8.32 2 9 C0.4375 7.3125 0.4375 7.3125 -1 5 C-0.6875 2.25 -0.6875 2.25 0 0 Z " fill="#F5F5F5" transform="translate(309,296)"/>
<path d="M0 0 C0.33 0.66 0.66 1.32 1 2 C1.66 2 2.32 2 3 2 C3.99 3.98 4.98 5.96 6 8 C4.68 8.33 3.36 8.66 2 9 C1.67 10.65 1.34 12.3 1 14 C0.67 14 0.34 14 0 14 C0 9.38 0 4.76 0 0 Z " fill="#E57F7F" transform="translate(229,256)"/>
<path d="M0 0 C0.66 0.33 1.32 0.66 2 1 C0.23598822 2.98563635 -1.53561883 4.96343656 -3.3125 6.9375 C-3.81201172 7.50146484 -4.31152344 8.06542969 -4.82617188 8.64648438 C-8.66015625 12.88671875 -8.66015625 12.88671875 -12 14 C-10.71480435 11.13302508 -9.42870746 9.02392288 -7 7 C-6.34 7 -5.68 7 -5 7 C-4.731875 6.401875 -4.46375 5.80375 -4.1875 5.1875 C-3.01506533 3.02775192 -1.80630718 1.64209744 0 0 Z " fill="#D1D1D1" transform="translate(128,283)"/>
<path d="M0 0 C0.66 0 1.32 0 2 0 C2 2.64 2 5.28 2 8 C0.35 8.33 -1.3 8.66 -3 9 C-2.01 6.03 -1.02 3.06 0 0 Z " fill="#242424" transform="translate(310,214)"/>
<path d="M0 0 C2.0625 0.4375 2.0625 0.4375 4 1 C3.67 2.98 3.34 4.96 3 7 C1.68 6.67 0.36 6.34 -1 6 C-1.042721 4.33388095 -1.04063832 2.66617115 -1 1 C-0.67 0.67 -0.34 0.34 0 0 Z " fill="#E2E2E2" transform="translate(314,165)"/>
<path d="M0 0 C2.475 0.495 2.475 0.495 5 1 C5.33 2.32 5.66 3.64 6 5 C4.125 5.625 4.125 5.625 2 6 C1.34 5.34 0.68 4.68 0 4 C0 2.68 0 1.36 0 0 Z " fill="#F0F0F0" transform="translate(170,291)"/>
<path d="M0 0 C0.4125 0.45375 0.825 0.9075 1.25 1.375 C3.06408095 3.05950374 4.75285627 3.99265971 7 5 C6.34 5.66 5.68 6.32 5 7 C2.375 6.625 2.375 6.625 0 6 C-1.125 2.25 -1.125 2.25 0 0 Z " fill="#62B5E5" transform="translate(319,216)"/>
<path d="M0 0 C2.97 0.495 2.97 0.495 6 1 C5.67 1.99 5.34 2.98 5 4 C1.9375 5.1875 1.9375 5.1875 -1 6 C-1.33 5.01 -1.66 4.02 -2 3 C-1.34 2.01 -0.68 1.02 0 0 Z " fill="#191919" transform="translate(407,204)"/>
<path d="M0 0 C0.33 0 0.66 0 1 0 C1.33 1.98 1.66 3.96 2 6 C-0.31 6.33 -2.62 6.66 -5 7 C-5.66 5.35 -6.32 3.7 -7 2 C-4.03824877 2.61277612 -2.61941217 3.25372522 0 5 C0 3.35 0 1.7 0 0 Z " fill="#353535" transform="translate(89,201)"/>
<path d="M0 0 C0.66 0.33 1.32 0.66 2 1 C0.59419724 2.65512248 -0.82506266 4.29882206 -2.25 5.9375 C-3.03890625 6.85402344 -3.8278125 7.77054687 -4.640625 8.71484375 C-6.91251033 10.91526249 -7.92319022 11.66832555 -11 12 C-7.49102731 7.81576108 -3.91939465 3.80411834 0 0 Z " fill="#DADADA" transform="translate(66,285)"/>
<path d="M0 0 C1.32 0.66 2.64 1.32 4 2 C3.25 3.9375 3.25 3.9375 2 6 C-0.125 6.75 -0.125 6.75 -2 7 C-2.125 4.625 -2.125 4.625 -2 2 C-1.34 1.34 -0.68 0.68 0 0 Z " fill="#D6D6D6" transform="translate(290,254)"/>
<path d="M0 0 C0.66 0 1.32 0 2 0 C1.52723148 4.25491665 -0.92547477 6.22542845 -4 9 C-4.99 9.495 -4.99 9.495 -6 10 C-5.67 9.01 -5.34 8.02 -5 7 C-4.34 7 -3.68 7 -3 7 C-3 5.68 -3 4.36 -3 3 C-2.34 3 -1.68 3 -1 3 C-0.67 2.01 -0.34 1.02 0 0 Z " fill="#EBEBEB" transform="translate(480,175)"/>
<path d="M0 0 C0 2.97 0 5.94 0 9 C-0.99 9.495 -0.99 9.495 -2 10 C-4.06878307 5.61904762 -4.06878307 5.61904762 -3.75 2.75 C-2.92836547 0.83285276 -2.22029759 0 0 0 Z " fill="#EEEEEE" transform="translate(375,174)"/>
<path d="M0 0 C2.475 0.495 2.475 0.495 5 1 C4.67 2.65 4.34 4.3 4 6 C2.68 5.34 1.36 4.68 0 4 C0 2.68 0 1.36 0 0 Z " fill="#F6F6F6" transform="translate(269,292)"/>
<path d="M0 0 C2.475 0.495 2.475 0.495 5 1 C4.67 2.65 4.34 4.3 4 6 C2.68 5.34 1.36 4.68 0 4 C0 2.68 0 1.36 0 0 Z " fill="#F4F4F4" transform="translate(107,292)"/>
<path d="M0 0 C0.99 0.33 1.98 0.66 3 1 C3 2.32 3 3.64 3 5 C2.01 5 1.02 5 0 5 C-0.33 5.99 -0.66 6.98 -1 8 C-1 7.01 -1 6.02 -1 5 C-1.66 4.67 -2.32 4.34 -3 4 C-2.01 2.68 -1.02 1.36 0 0 Z " fill="#D8D8D8" transform="translate(447,156)"/>
<path d="M0 0 C0.70125 0.7425 1.4025 1.485 2.125 2.25 C4.97718006 4.97817223 7.6763063 6.91302954 11 9 C9.3125 9.8125 9.3125 9.8125 7 10 C3.39713352 7.0833938 1.38833764 4.41743795 0 0 Z " fill="#F2BFBF" transform="translate(133,268)"/>
<path d="M0 0 C0.66 0 1.32 0 2 0 C1.67 4.62 1.34 9.24 1 14 C0.67 14 0.34 14 0 14 C-0.19456705 12.04235617 -0.38044247 10.08384679 -0.5625 8.125 C-0.66691406 7.03445312 -0.77132812 5.94390625 -0.87890625 4.8203125 C-1 2 -1 2 0 0 Z " fill="#E06565" transform="translate(228,241)"/>
<path d="M0 0 C0.66 0.33 1.32 0.66 2 1 C-1.49359465 4.59634744 -5.11098131 7.83451967 -9 11 C-7.59155282 7.78475695 -5.89655214 5.67816132 -3.375 3.25 C-2.74335938 2.63640625 -2.11171875 2.0228125 -1.4609375 1.390625 C-0.73777344 0.70226562 -0.73777344 0.70226562 0 0 Z " fill="#BCBCBC" transform="translate(470,202)"/>
<path d="M0 0 C0.99 0 1.98 0 3 0 C4.421875 1.6796875 4.421875 1.6796875 5.75 3.875 C6.19859375 4.59429687 6.6471875 5.31359375 7.109375 6.0546875 C7.40328125 6.69664062 7.6971875 7.33859375 8 8 C7.67 8.66 7.34 9.32 7 10 C5.82739389 8.71372289 4.6620717 7.42080217 3.5 6.125 C2.8503125 5.40570313 2.200625 4.68640625 1.53125 3.9453125 C0 2 0 2 0 0 Z " fill="#DCDCDC" transform="translate(242,204)"/>
<path d="M0 0 C1.9375 0.8125 1.9375 0.8125 4 2 C4.33 2.99 4.66 3.98 5 5 C2.69 5.33 0.38 5.66 -2 6 C-1.34 4.02 -0.68 2.04 0 0 Z " fill="#1A1A1A" transform="translate(335,199)"/>
<path d="M0 0 C2 1 2 1 3 3.9375 C3.33 4.948125 3.66 5.95875 4 7 C4.66 7.66 5.32 8.32 6 9 C3.69 8.67 1.38 8.34 -1 8 C-0.67 5.36 -0.34 2.72 0 0 Z " fill="#8BC8EB" transform="translate(334,263)"/>
<path d="M0 0 C0.99 0.33 1.98 0.66 3 1 C2.34 2.65 1.68 4.3 1 6 C0.34 6 -0.32 6 -1 6 C-1 8.31 -1 10.62 -1 13 C-1.33 13 -1.66 13 -2 13 C-2.16682272 8.07872966 -2.24828052 4.49656104 0 0 Z " fill="#E47777" transform="translate(231,214)"/>
<path d="M0 0 C1.2065625 0.0309375 1.2065625 0.0309375 2.4375 0.0625 C1.4475 0.3925 0.4575 0.7225 -0.5625 1.0625 C-0.2325 2.7125 0.0975 4.3625 0.4375 6.0625 C-1.2125 5.7325 -2.8625 5.4025 -4.5625 5.0625 C-3.43829114 0.08386076 -3.43829114 0.08386076 0 0 Z " fill="#141414" transform="translate(269.5625,290.9375)"/>
<path d="M0 0 C3.01327566 1.50663783 3.61056618 4.03166411 5 7 C3.68 7.33 2.36 7.66 1 8 C0.26919734 6.02253397 -0.39421747 4.01927511 -1 2 C-0.67 1.34 -0.34 0.68 0 0 Z " fill="#E16C6C" transform="translate(221,267)"/>
<path d="M0 0 C3.33537489 1.11179163 4.63707344 2.47411298 7 5 C6.67 5.99 6.34 6.98 6 8 C1.3125 4.38671875 1.3125 4.38671875 0 3 C0 2.01 0 1.02 0 0 Z " fill="#CF1212" transform="translate(66,244)"/>
<path d="M0 0 C0.99 0 1.98 0 3 0 C3.33 1.65 3.66 3.3 4 5 C2.35 5 0.7 5 -1 5 C-0.67 3.35 -0.34 1.7 0 0 Z " fill="#1B1B1B" transform="translate(206,244)"/>
<path d="M0 0 C1.5 1.3125 1.5 1.3125 3 3 C3 3.99 3 4.98 3 6 C4.65 6 6.3 6 8 6 C7.67 6.66 7.34 7.32 7 8 C4.625 7.6875 4.625 7.6875 2 7 C0 4 0 4 0 0 Z " fill="#202020" transform="translate(144,195)"/>
<path d="M0 0 C1.32 0.33 2.64 0.66 4 1 C4.33 2.32 4.66 3.64 5 5 C3.35 4.67 1.7 4.34 0 4 C0 2.68 0 1.36 0 0 Z " fill="#E8E8E8" transform="translate(467,247)"/>
<path d="M0 0 C2.31 0.66 4.62 1.32 7 2 C5 4 5 4 1.375 4.125 C0.26125 4.08375 -0.8525 4.0425 -2 4 C-1.34 2.68 -0.68 1.36 0 0 Z " fill="#E6E6E6" transform="translate(42,240)"/>
<path d="M0 0 C0.99 0.33 1.98 0.66 3 1 C3 2.32 3 3.64 3 5 C1.35 4.67 -0.3 4.34 -2 4 C-2 3.01 -2 2.02 -2 1 C-1.34 0.67 -0.68 0.34 0 0 Z " fill="#E8E8E8" transform="translate(56,225)"/>
<path d="M0 0 C0.66 0 1.32 0 2 0 C2 0.66 2 1.32 2 2 C3.32 2 4.64 2 6 2 C6 2.99 6 3.98 6 5 C4.35 5 2.7 5 1 5 C0.67 3.35 0.34 1.7 0 0 Z " fill="#4DABE1" transform="translate(371,216)"/>
<path d="M0 0 C0.99 1.485 0.99 1.485 2 3 C2.66 2.67 3.32 2.34 4 2 C4.66 2.66 5.32 3.32 6 4 C4.35 5.65 2.7 7.3 1 9 C0.67 6.03 0.34 3.06 0 0 Z " fill="#E37575" transform="translate(152,214)"/>
<path d="M0 0 C-2.36620011 2.61527381 -4.942048 4.26440562 -8 6 C-7.39816251 3.97954558 -6.72693904 1.97888961 -6 0 C-3.50907189 -1.24546405 -2.58919267 -0.7767578 0 0 Z " fill="#E47A7A" transform="translate(268,211)"/>
<path d="M0 0 C0.33 0.99 0.66 1.98 1 3 C-0.98 4.98 -2.96 6.96 -5 9 C-5.66 8.67 -6.32 8.34 -7 8 C-4.69 5.36 -2.38 2.72 0 0 Z " fill="#E1E1E1" transform="translate(435,191)"/>
<path d="M0 0 C1.98 0.99 1.98 0.99 4 2 C4 3.32 4 4.64 4 6 C3.01 6 2.02 6 1 6 C0.67 4.02 0.34 2.04 0 0 Z " fill="#DCDCDC" transform="translate(320,173)"/>
<path d="M0 0 C0.99 0.33 1.98 0.66 3 1 C3 2.65 3 4.3 3 6 C1.68 5.67 0.36 5.34 -1 5 C-0.67 3.35 -0.34 1.7 0 0 Z " fill="#D9D9D9" transform="translate(106,302)"/>
<path d="M0 0 C0.93065133 2.60582371 1.14917407 3.64198224 0.0625 6.25 C-0.4634375 7.11625 -0.4634375 7.11625 -1 8 C-1.66 7.01 -2.32 6.02 -3 5 C-2.67 4.01 -2.34 3.02 -2 2 C-2.66 1.67 -3.32 1.34 -4 1 C-2.68 0.67 -1.36 0.34 0 0 Z " fill="#888888" transform="translate(296,226)"/>
<path d="M0 0 C0.99 0.33 1.98 0.66 3 1 C2.67 2.65 2.34 4.3 2 6 C1.01 5.67 0.02 5.34 -1 5 C-0.67 3.35 -0.34 1.7 0 0 Z " fill="#D7D7D7" transform="translate(259,190)"/>
<path d="M0 0 C1.65 0.33 3.3 0.66 5 1 C4.67 1.99 4.34 2.98 4 4 C2.35 3.67 0.7 3.34 -1 3 C-0.67 2.01 -0.34 1.02 0 0 Z " fill="#F0F0F0" transform="translate(33,190)"/>
<path d="M0 0 C0.66 0.33 1.32 0.66 2 1 C2 2.65 2 4.3 2 6 C0.68 5.67 -0.64 5.34 -2 5 C-1.125 1.125 -1.125 1.125 0 0 Z " fill="#D8D8D8" transform="translate(269,302)"/>
<path d="M0 0 C1.5 1.3125 1.5 1.3125 3 3 C3 3.99 3 4.98 3 6 C1.68 6 0.36 6 -1 6 C-1.042721 4.33388095 -1.04063832 2.66617115 -1 1 C-0.67 0.67 -0.34 0.34 0 0 Z " fill="#EBEBEB" transform="translate(170,301)"/>
<path d="M0 0 C2.9375 0.8125 2.9375 0.8125 6 2 C6.33 2.99 6.66 3.98 7 5 C4.03 4.505 4.03 4.505 1 4 C0.67 2.68 0.34 1.36 0 0 Z " fill="#2D9CDC" transform="translate(334,270)"/>
<path d="M0 0 C1.32 0.66 2.64 1.32 4 2 C4 2.99 4 3.98 4 5 C1.03 4.505 1.03 4.505 -2 4 C-1.34 2.68 -0.68 1.36 0 0 Z " fill="#E2E2E2" transform="translate(409,200)"/>
<path d="M0 0 C2.69082872 0.17635452 5.32851446 0.61835921 8 1 C8 1.99 8 2.98 8 4 C1.25 3.25 1.25 3.25 -1 1 C-0.67 0.67 -0.34 0.34 0 0 Z " fill="#3CA3DE" transform="translate(378,271)"/>
<path d="M0 0 C0.99 0 1.98 0 3 0 C3.125 2.875 3.125 2.875 3 6 C2.34 6.66 1.68 7.32 1 8 C0.67 5.36 0.34 2.72 0 0 Z " fill="#E1E1E1" transform="translate(305,198)"/>
<path d="M0 0 C1 2 1 2 0.3125 4.5625 C-1 7 -1 7 -3.125 7.8125 C-3.74375 7.874375 -4.3625 7.93625 -5 8 C-1.125 1.125 -1.125 1.125 0 0 Z " fill="#242424" transform="translate(354,189)"/>
<path d="M0 0 C1.32 0 2.64 0 4 0 C3.67 1.32 3.34 2.64 3 4 C1.68 4 0.36 4 -1 4 C-0.67 2.68 -0.34 1.36 0 0 Z " fill="#E6E6E6" transform="translate(94,185)"/>
<path d="M0 0 C1.32 0 2.64 0 4 0 C3.67 1.65 3.34 3.3 3 5 C2.01 4.67 1.02 4.34 0 4 C0 2.68 0 1.36 0 0 Z " fill="#EFEFEF" transform="translate(426,183)"/>
<path d="M0 0 C1.32 0 2.64 0 4 0 C3.67 1.65 3.34 3.3 3 5 C2.01 4.67 1.02 4.34 0 4 C0 2.68 0 1.36 0 0 Z " fill="#D6D6D6" transform="translate(377,182)"/>
<path d="M0 0 C0.33 0 0.66 0 1 0 C1 1.98 1 3.96 1 6 C-0.32 6 -1.64 6 -3 6 C-2.67 4.68 -2.34 3.36 -2 2 C-1.34 2 -0.68 2 0 2 C0 1.34 0 0.68 0 0 Z " fill="#DEDEDE" transform="translate(190,303)"/>
<path d="M0 0 C0.33 0.66 0.66 1.32 1 2 C1.66 2.33 2.32 2.66 3 3 C1.68 4.32 0.36 5.64 -1 7 C-1.99 6.67 -2.98 6.34 -4 6 C-3.525625 5.566875 -3.05125 5.13375 -2.5625 4.6875 C-0.76313043 2.97690387 -0.76313043 2.97690387 0 0 Z " fill="#D1D1D1" transform="translate(221,290)"/>
<path d="M0 0 C1.98 0.99 1.98 0.99 4 2 C4 3.65 4 5.3 4 7 C2 5.1875 2 5.1875 0 3 C0 2.01 0 1.02 0 0 Z " fill="#DDDDDD" transform="translate(154,287)"/>
<path d="M0 0 C-2.75924185 1.80411967 -3.88972103 2.0127245 -7.25 1.625 C-8.1575 1.41875 -9.065 1.2125 -10 1 C-6.42181037 -1.33958553 -4.07775191 -0.9267618 0 0 Z " fill="#252525" transform="translate(435,281)"/>
<path d="M0 0 C3.78786597 0.5260925 6.17152224 1.38103911 9 4 C9 4.66 9 5.32 9 6 C5.06326356 4.68775452 2.77280706 3.08089673 0 0 Z " fill="#2D2D2D" transform="translate(216,208)"/>
</svg>
